SplineFontDB: 3.0
FontName: voice-icons
FullName: voice-icons
FamilyName: voice-icons
Weight: Book
Copyright: 
Version: 2.0
ItalicAngle: 0
UnderlinePosition: 0
UnderlineWidth: 0
Ascent: 960
Descent: 64
InvalidEm: 0
sfntRevision: 0x00010000
LayerCount: 2
Layer: 0 1 "Back" 1
Layer: 1 1 "Fore" 0
NeedsXUIDChange: 1
XUID: [1021 70 -1291200245 5390828]
UseXUID: 1
StyleMap: 0x0040
FSType: 0
OS2Version: 3
OS2_WeightWidthSlopeOnly: 0
OS2_UseTypoMetrics: 0
CreationTime: 1505900203
ModificationTime: 1512488562
PfmFamily: 81
TTFWeight: 400
TTFWidth: 5
LineGap: 0
VLineGap: 0
Panose: 0 0 0 0 0 0 0 0 0 0
OS2TypoAscent: 960
OS2TypoAOffset: 0
OS2TypoDescent: -64
OS2TypoDOffset: 0
OS2TypoLinegap: 64
OS2WinAscent: 960
OS2WinAOffset: 0
OS2WinDescent: 64
OS2WinDOffset: 0
HheadAscent: 960
HheadAOffset: 0
HheadDescent: -64
HheadDOffset: 0
OS2SubXSize: 665
OS2SubYSize: 716
OS2SubXOff: 0
OS2SubYOff: 143
OS2SupXSize: 665
OS2SupYSize: 716
OS2SupXOff: 0
OS2SupYOff: 491
OS2StrikeYSize: 51
OS2StrikeYPos: 265
OS2Vendor: 'PfEd'
OS2CodePages: 00000001.00000000
OS2UnicodeRanges: 00000001.20000000.00000000.00000000
MarkAttachClasses: 1
DEI: 91125
ShortTable: maxp 16
  1
  0
  64
  206
  12
  0
  0
  2
  0
  0
  0
  0
  0
  0
  0
  0
EndShort
LangName: 1033 "" "" "Regular" "" "" "Version 1.0" "" "" "" "" "Voice Icons"
GaspTable: 1 65535 15 1
Encoding: UnicodeBmp
UnicodeInterp: none
NameList: AGL For New Fonts
DisplaySize: -48
AntiAlias: 1
FitToEm: 0
WinInfo: 63536 38 16
BeginPrivate: 0
EndPrivate
Grid
512.111328125 1472 m 0
 512.111328125 -576 l 1024
  Named: "middle"
-1024 507.666666667 m 0
 2048 507.666666667 l 1024
EndSplineSet
TeXData: 1 0 0 524288 262144 174762 0 1048576 174762 783286 444596 497025 792723 393216 433062 380633 303038 157286 324010 404750 52429 2506097 1059062 262144
BeginChars: 65536 44

StartChar: glyph1
Encoding: 0 -1 1
AltUni2: 000000.ffffffff.0
Width: 0
Flags: W
LayerCount: 2
Fore
SplineSet
0 0 m 1,0,-1
 0 0 l 1,1,-1
 0 0 l 1,2,-1
 0 0 l 1,0,-1
EndSplineSet
Validated: 1
EndChar

StartChar: uni0001
Encoding: 1 1 2
Width: 0
Flags: W
LayerCount: 2
Fore
SplineSet
0 0 m 1,0,-1
 0 0 l 1,1,-1
 0 0 l 1,2,-1
 0 0 l 1,0,-1
EndSplineSet
Validated: 1
EndChar

StartChar: space
Encoding: 32 32 3
Width: 512
Flags: W
LayerCount: 2
Fore
SplineSet
0 0 m 1,0,-1
 0 0 l 1,1,-1
 0 0 l 1,2,-1
 0 0 l 1,0,-1
EndSplineSet
Validated: 1
EndChar

StartChar: uniF900
Encoding: 63744 63744 4
Width: 1024
Flags: W
LayerCount: 2
Fore
SplineSet
533.178710938 915.139648438 m 6,0,-1
 792.665039062 655.653320312 l 6,1,2
 803.008789062 645.309570312 803.008789062 645.309570312 792.665039062 634.965820312 c 4,3,4
 788.379882812 630.680664062 788.379882812 630.680664062 782.321289062 630.680664062 c 6,5,-1
 232.31640625 630.680664062 l 6,6,7
 226.256835938 630.680664062 226.256835938 630.680664062 221.97265625 634.965820312 c 132,-1,8
 217.6875 639.25 217.6875 639.25 217.6875 645.309570312 c 132,-1,9
 217.6875 651.368164062 217.6875 651.368164062 221.97265625 655.653320312 c 6,10,-1
 481.458984375 915.139648438 l 6,11,12
 492.170898438 925.8515625 492.170898438 925.8515625 507.318359375 925.8515625 c 132,-1,13
 522.466796875 925.8515625 522.466796875 925.8515625 533.178710938 915.139648438 c 6,0,-1
533.178710938 -19.4921875 m 6,14,15
 522.466796875 -30.2041015625 522.466796875 -30.2041015625 507.318359375 -30.2041015625 c 132,-1,16
 492.170898438 -30.2041015625 492.170898438 -30.2041015625 481.458984375 -19.4921875 c 6,17,-1
 221.97265625 239.994140625 l 6,18,19
 217.6875 244.279296875 217.6875 244.279296875 217.6875 250.337890625 c 132,-1,20
 217.6875 256.397460938 217.6875 256.397460938 221.97265625 260.681640625 c 132,-1,21
 226.256835938 264.966796875 226.256835938 264.966796875 232.31640625 264.966796875 c 6,22,-1
 782.321289062 264.966796875 l 6,23,24
 788.380859375 264.966796875 788.380859375 264.966796875 792.665039062 260.682617188 c 4,25,26
 803.009765625 250.337890625 803.009765625 250.337890625 792.665039062 239.994140625 c 6,27,-1
 533.178710938 -19.4921875 l 6,14,15
EndSplineSet
Validated: 1
EndChar

StartChar: uniF901
Encoding: 63745 63745 5
Width: 1024
Flags: W
LayerCount: 2
Fore
SplineSet
828.564453125 420.303710938 m 1,0,-1
 58.5986328125 420.303710938 l 2,1,2
 34.3262473776 420.303710938 34.3262473776 420.303710938 17.1631236888 437.466637054 c 128,-1,3
 0 454.62956317 0 454.62956317 0 478.901367188 c 128,-1,4
 0 503.173828125 0 503.173828125 17.1630859375 520.336914062 c 128,-1,5
 34.326171875 537.5 34.326171875 537.5 58.5986328125 537.5 c 2,6,-1
 832.654296875 537.5 l 1,7,-1
 536.962890625 860.184570312 l 2,8,9
 520.848876953 877.769287109 520.848876953 877.769287109 520.848876953 901.619995117 c 128,-1,10
 520.848876953 925.470703125 520.848876953 925.470703125 536.962890625 943.0546875 c 1,11,-1
 536.962890625 943.0546875 l 1,12,13
 538.486727336 944.718258272 538.486727336 944.718258272 540.138671875 946.231445312 c 0,14,15
 555.866056083 960.643213106 555.866056083 960.643213106 577.177612305 959.712646484 c 128,-1,16
 598.489168526 958.782079862 598.489168526 958.782079862 612.900390625 943.0546875 c 2,17,-1
 1015.04980469 504.193359375 l 2,18,19
 1024.01757812 494.406738281 1024.01757812 494.406738281 1024.01757812 481.1328125 c 128,-1,20
 1024.01757812 467.858886719 1024.01757812 467.858886719 1015.04980469 458.072265625 c 2,21,-1
 614.310546875 20.75 l 2,22,23
 612.795065497 19.0955507351 612.795065497 19.0955507351 611.134765625 17.5732421875 c 0,24,25
 595.407542382 3.16203115019 595.407542382 3.16203115019 574.095825195 4.09240722656 c 128,-1,26
 552.784108009 5.02278330294 552.784108009 5.02278330294 538.373046875 20.75 c 0,27,28
 522.259033203 38.3347167969 522.259033203 38.3347167969 522.259033203 62.1854248047 c 128,-1,29
 522.259033203 86.0361328125 522.259033203 86.0361328125 538.373046875 103.620117188 c 2,30,-1
 828.564453125 420.303710938 l 1,0,-1
EndSplineSet
Validated: 33
EndChar

StartChar: uniF902
Encoding: 63746 63746 6
Width: 1024
Flags: W
LayerCount: 2
Fore
SplineSet
906.04296875 629.104492188 m 5,0,1
 926.6484375 648.034179688 926.6484375 648.034179688 955.708984375 647.431640625 c 132,-1,2
 984.76953125 646.830078125 984.76953125 646.830078125 1003.18359375 626.169921875 c 4,3,4
 1024 607.364257812 1024 607.364257812 1024 578.458984375 c 132,-1,5
 1024 549.553710938 1024 549.553710938 1003.18359375 528.658203125 c 6,6,-1
 609.141601562 133.112304688 l 5,7,-1
 548.272460938 72.0107421875 l 6,8,9
 533.110351562 56.90625 533.110351562 56.90625 511.90234375 56.9462890625 c 132,-1,10
 490.694335938 56.986328125 490.694335938 56.986328125 475.727539062 72.0107421875 c 6,11,-1
 414.858398438 133.112304688 l 5,12,-1
 20.81640625 531.592773438 l 6,13,14
 0 550.3984375 0 550.3984375 0 579.303710938 c 132,-1,15
 0 608.208984375 0 608.208984375 20.81640625 629.104492188 c 4,16,17
 39.5498046875 650 39.5498046875 650 68.345703125 650 c 132,-1,18
 97.1416015625 650 97.1416015625 650 117.95703125 629.104492188 c 6,19,-1
 512 230.624023438 l 5,20,-1
 906.04296875 629.104492188 l 5,0,1
EndSplineSet
Validated: 33
EndChar

StartChar: uniF903
Encoding: 63747 63747 7
Width: 1024
Flags: W
LayerCount: 2
Fore
SplineSet
90.3525390625 182.176757812 m 6,0,-1
 933.647460938 182.176757812 l 6,1,2
 971.072265625 182.176757812 971.072265625 182.176757812 997.536132812 155.712890625 c 132,-1,3
 1024 129.249023438 1024 129.249023438 1024 91.8232421875 c 132,-1,4
 1024 54.3984375 1024 54.3984375 997.536132812 27.9345703125 c 132,-1,5
 971.072265625 1.470703125 971.072265625 1.470703125 933.647460938 1.470703125 c 6,6,-1
 90.3525390625 1.470703125 l 6,7,8
 52.927734375 1.470703125 52.927734375 1.470703125 26.4638671875 27.9345703125 c 132,-1,9
 0 54.3984375 0 54.3984375 0 91.8232421875 c 132,-1,10
 0 129.249023438 0 129.249023438 26.4638671875 155.712890625 c 132,-1,11
 52.927734375 182.176757812 52.927734375 182.176757812 90.3525390625 182.176757812 c 6,0,-1
90.3525390625 543.587890625 m 6,12,-1
 933.647460938 543.587890625 l 6,13,14
 971.072265625 543.587890625 971.072265625 543.587890625 997.536132812 517.124023438 c 132,-1,15
 1024 490.66015625 1024 490.66015625 1024 453.235351562 c 132,-1,16
 1024 415.810546875 1024 415.810546875 997.536132812 389.346679688 c 132,-1,17
 971.072265625 362.8828125 971.072265625 362.8828125 933.647460938 362.8828125 c 6,18,-1
 90.3525390625 362.8828125 l 6,19,20
 52.927734375 362.8828125 52.927734375 362.8828125 26.4638671875 389.346679688 c 132,-1,21
 0 415.810546875 0 415.810546875 0 453.235351562 c 132,-1,22
 0 490.66015625 0 490.66015625 26.4638671875 517.124023438 c 132,-1,23
 52.927734375 543.587890625 52.927734375 543.587890625 90.3525390625 543.587890625 c 6,12,-1
90.3525390625 905 m 6,24,-1
 933.647460938 905 l 6,25,26
 971.072265625 905 971.072265625 905 997.536132812 878.536132812 c 132,-1,27
 1024 852.072265625 1024 852.072265625 1024 814.647460938 c 132,-1,28
 1024 777.221679688 1024 777.221679688 997.536132812 750.7578125 c 132,-1,29
 971.073242188 724.293945312 971.073242188 724.293945312 933.647460938 724.293945312 c 6,30,-1
 90.3525390625 724.293945312 l 6,31,32
 52.9267578125 724.293945312 52.9267578125 724.293945312 26.4638671875 750.7578125 c 132,-1,33
 0 777.221679688 0 777.221679688 0 814.647460938 c 5,34,-1
 0 814.647460938 l 5,35,36
 0 852.072265625 0 852.072265625 26.4638671875 878.536132812 c 132,-1,37
 52.927734375 905 52.927734375 905 90.3525390625 905 c 6,24,-1
EndSplineSet
EndChar

StartChar: uniF904
Encoding: 63748 63748 8
Width: 1024
Flags: W
LayerCount: 2
Fore
SplineSet
51.2001953125 960 m 2,0,-1
 972.799804688 960 l 2,1,2
 994.0078125 960 994.0078125 960 1009.00390625 945.00390625 c 128,-1,3
 1024 930.0078125 1024 930.0078125 1024 908.799804688 c 2,4,-1
 1024 -12.7998046875 l 2,5,6
 1024 -34.0078125 1024 -34.0078125 1009.00390625 -49.00390625 c 128,-1,7
 994.0078125 -64 994.0078125 -64 972.799804688 -64 c 2,8,-1
 51.2001953125 -64 l 2,9,10
 29.9921875 -64 29.9921875 -64 14.99609375 -49.00390625 c 128,-1,11
 0 -34.0078125 0 -34.0078125 0 -12.7998046875 c 2,12,-1
 0 908.799804688 l 2,13,14
 0 930.0078125 0 930.0078125 14.99609375 945.00390625 c 128,-1,15
 29.9921875 960 29.9921875 960 51.2001953125 960 c 2,0,-1
256 294.400390625 m 2,16,17
 234.792160824 294.400390625 234.792160824 294.400390625 219.795982756 279.404014984 c 128,-1,18
 204.799804688 264.407639342 204.799804688 264.407639342 204.799804688 243.200195312 c 128,-1,19
 204.799804688 221.9921875 204.799804688 221.9921875 219.795898438 206.99609375 c 128,-1,20
 234.791992188 192 234.791992188 192 256 192 c 2,21,-1
 768 192 l 2,22,23
 789.208007812 192 789.208007812 192 804.204101562 206.99609375 c 128,-1,24
 819.200195312 221.9921875 819.200195312 221.9921875 819.200195312 243.200195312 c 128,-1,25
 819.200195312 264.407639342 819.200195312 264.407639342 804.204017244 279.404014984 c 128,-1,26
 789.207839176 294.400390625 789.207839176 294.400390625 768 294.400390625 c 2,27,-1
 256 294.400390625 l 2,16,17
256 499.200195312 m 2,28,29
 234.791992188 499.200195312 234.791992188 499.200195312 219.795898438 484.204101562 c 128,-1,30
 204.799804688 469.208007812 204.799804688 469.208007812 204.799804688 448 c 128,-1,31
 204.799804688 426.791992188 204.799804688 426.791992188 219.795898438 411.795898438 c 128,-1,32
 234.791992188 396.799804688 234.791992188 396.799804688 256 396.799804688 c 2,33,-1
 768 396.799804688 l 2,34,35
 789.208007812 396.799804688 789.208007812 396.799804688 804.204101562 411.795898438 c 128,-1,36
 819.200195312 426.791992188 819.200195312 426.791992188 819.200195312 448 c 128,-1,37
 819.200195312 469.208007812 819.200195312 469.208007812 804.204101562 484.204101562 c 128,-1,38
 789.208007812 499.200195312 789.208007812 499.200195312 768 499.200195312 c 2,39,-1
 256 499.200195312 l 2,28,29
256 704 m 2,40,41
 234.791992188 704 234.791992188 704 219.795898438 689.00390625 c 128,-1,42
 204.799804688 674.0078125 204.799804688 674.0078125 204.799804688 652.799804688 c 128,-1,43
 204.799804688 631.592360658 204.799804688 631.592360658 219.795982756 616.595985016 c 128,-1,44
 234.792160824 601.599609375 234.792160824 601.599609375 256 601.599609375 c 2,45,-1
 768 601.599609375 l 2,46,47
 781.908539146 601.599609375 781.908539146 601.599609375 793.702964865 608.451248517 c 128,-1,48
 805.497390583 615.302887658 805.497390583 615.302887658 812.348792948 627.097254088 c 128,-1,49
 819.200195312 638.891620517 819.200195312 638.891620517 819.200195312 652.799804688 c 0,50,51
 819.200195312 674.0078125 819.200195312 674.0078125 804.204101562 689.00390625 c 128,-1,52
 789.208007812 704 789.208007812 704 768 704 c 2,53,-1
 256 704 l 2,40,41
EndSplineSet
EndChar

StartChar: uniF905
Encoding: 63749 63749 9
Width: 1024
Flags: W
LayerCount: 2
Fore
SplineSet
581.5625 -64 m 5,0,-1
 382.473632812 -64 l 5,1,-1
 382.473632812 403.091796875 l 5,2,-1
 216 403.091796875 l 5,3,-1
 216 585.12890625 l 5,4,-1
 382.473632812 585.12890625 l 5,5,-1
 382.473632812 719.375 l 6,6,7
 382.473632812 833.916015625 382.473632812 833.916015625 450.024414062 896.958007812 c 132,-1,8
 517.575195312 960 517.575195312 960 630.435546875 960 c 4,9,10
 721.983398438 960 721.983398438 960 779.200195312 952.828125 c 5,11,-1
 779.200195312 790.015625 l 5,12,-1
 677.107421875 789.974609375 l 6,13,14
 647.926757812 789.974609375 647.926757812 789.974609375 628.547851562 783.818359375 c 132,-1,15
 609.169921875 777.662109375 609.169921875 777.662109375 599.177734375 765.147460938 c 132,-1,16
 589.185546875 752.6328125 589.185546875 752.6328125 585.374023438 737.712890625 c 132,-1,17
 581.5625 722.79296875 581.5625 722.79296875 581.5625 701.3515625 c 6,18,-1
 581.5625 585.12890625 l 5,19,-1
 772.475585938 585.12890625 l 5,20,-1
 747.615234375 403.091796875 l 5,21,-1
 581.5625 403.091796875 l 5,22,-1
 581.5625 -64 l 5,0,-1
EndSplineSet
Validated: 1
EndChar

StartChar: uniF906
Encoding: 63750 63750 10
Width: 1024
Flags: W
LayerCount: 2
Fore
SplineSet
51.2001953125 960 m 2,0,-1
 972.799804688 960 l 2,1,2
 994.0078125 960 994.0078125 960 1009.00390625 945.00390625 c 128,-1,3
 1024 930.0078125 1024 930.0078125 1024 908.799804688 c 2,4,-1
 1024 -12.7998046875 l 2,5,6
 1024 -34.0078125 1024 -34.0078125 1009.00390625 -49.00390625 c 128,-1,7
 994.0078125 -64 994.0078125 -64 972.799804688 -64 c 2,8,-1
 51.2001953125 -64 l 2,9,10
 29.9921875 -64 29.9921875 -64 14.99609375 -49.00390625 c 128,-1,11
 0 -34.0078125 0 -34.0078125 0 -12.7998046875 c 2,12,-1
 0 908.799804688 l 2,13,14
 0 930.0078125 0 930.0078125 14.99609375 945.00390625 c 128,-1,15
 29.9921875 960 29.9921875 960 51.2001953125 960 c 2,0,-1
675.462890625 -64 m 1,16,-1
 675.462890625 309.673828125 l 1,17,-1
 796.229492188 309.673828125 l 1,18,-1
 814.309570312 455.302734375 l 1,19,-1
 675.462890625 455.302734375 l 1,20,-1
 675.462890625 548.28125 l 2,21,22
 675.462890625 583.610978508 675.462890625 583.610978508 689.878284382 601.395333004 c 128,-1,23
 704.29367814 619.1796875 704.29367814 619.1796875 744.951171875 619.1796875 c 2,24,-1
 819.200195312 619.212890625 l 1,25,-1
 819.200195312 749.461914062 l 1,26,27
 777.592911254 755.200195312 777.592911254 755.200195312 711.0078125 755.200195312 c 0,28,29
 628.927481991 755.200195312 628.927481991 755.200195312 579.799678496 704.766791384 c 128,-1,30
 530.671875 654.333387455 530.671875 654.333387455 530.671875 562.700195312 c 2,31,-1
 530.671875 455.302734375 l 1,32,-1
 409.599609375 455.302734375 l 1,33,-1
 409.599609375 309.673828125 l 1,34,-1
 530.671875 309.673828125 l 1,35,-1
 530.671875 -64 l 1,36,-1
 675.462890625 -64 l 1,16,-1
EndSplineSet
Validated: 5
EndChar

StartChar: uniF907
Encoding: 63751 63751 11
Width: 1024
Flags: W
LayerCount: 2
Fore
SplineSet
511.19140625 960 m 128,-1,1
 654.629975454 960 654.629975454 960 721.956054688 956.923828125 c 0,2,3
 793.282808576 953.665817309 793.282808576 953.665817309 846.041015625 933.163085938 c 0,4,5
 897.694278635 913.090877615 897.694278635 913.090877615 936.583984375 874.201171875 c 128,-1,6
 975.471914633 835.311905262 975.471914633 835.311905262 995.544921875 783.657226562 c 0,7,8
 1016.05325801 730.900228978 1016.05325801 730.900228978 1019.30761719 659.569335938 c 0,9,10
 1022.38183594 592.2596178 1022.38183594 592.2596178 1022.38183594 448.80859375 c 128,-1,11
 1022.38183594 305.35366345 1022.38183594 305.35366345 1019.30761719 238.043945312 c 0,12,13
 1016.05325801 166.713052272 1016.05325801 166.713052272 995.544921875 113.956054688 c 0,14,15
 975.471914633 62.3013759876 975.471914633 62.3013759876 936.583984375 23.412109375 c 128,-1,16
 897.694278635 -15.4775963654 897.694278635 -15.4775963654 846.041015625 -35.5498046875 c 0,17,18
 793.282808576 -56.0525360588 793.282808576 -56.0525360588 721.956054688 -59.310546875 c 0,19,20
 654.524241525 -62.38671875 654.524241525 -62.38671875 511.19140625 -62.38671875 c 128,-1,21
 367.859316337 -62.38671875 367.859316337 -62.38671875 300.428710938 -59.310546875 c 0,22,23
 229.097600211 -56.0524540019 229.097600211 -56.0524540019 176.342773438 -35.5498046875 c 0,24,25
 124.687913184 -15.4769756843 124.687913184 -15.4769756843 85.798828125 23.412109375 c 128,-1,26
 46.9108899479 62.3000475521 46.9108899479 62.3000475521 26.8388671875 113.956054688 c 0,27,28
 6.32784091444 166.715896545 6.32784091444 166.715896545 3.076171875 238.043945312 c 0,29,30
 0 305.42285003 0 305.42285003 0 448.80859375 c 128,-1,31
 0 592.19043122 0 592.19043122 3.076171875 659.569335938 c 0,32,33
 6.32784091444 730.897384705 6.32784091444 730.897384705 26.8388671875 783.657226562 c 0,34,35
 46.9108899479 835.313233698 46.9108899479 835.313233698 85.798828125 874.201171875 c 128,-1,36
 124.687913184 913.090256934 124.687913184 913.090256934 176.342773438 933.163085938 c 0,37,38
 229.097600211 953.665735252 229.097600211 953.665735252 300.428710938 956.923828125 c 0,39,0
 367.753584302 960 367.753584302 960 511.19140625 960 c 128,-1,1
511.19140625 867.893554688 m 128,-1,41
 369.926205319 867.893554688 369.926205319 867.893554688 304.625 864.916015625 c 0,42,43
 248.41266945 862.350645808 248.41266945 862.350645808 209.705078125 847.3125 c 0,44,45
 176.109452665 834.25593704 176.109452665 834.25593704 150.926757812 809.073242188 c 128,-1,46
 125.745135916 783.884745326 125.745135916 783.884745326 112.689453125 750.294921875 c 0,47,48
 97.6521494634 711.600297707 97.6521494634 711.600297707 95.083984375 655.375 c 0,49,50
 92.1064453125 590.021865293 92.1064453125 590.021865293 92.1064453125 448.80859375 c 128,-1,51
 92.1064453125 307.590379209 92.1064453125 307.590379209 95.083984375 242.243164062 c 0,52,53
 97.65211707 186.013066899 97.65211707 186.013066899 112.689453125 147.318359375 c 0,54,55
 125.746884553 113.726786809 125.746884553 113.726786809 150.926757812 88.5400390625 c 128,-1,56
 176.110755784 63.3560410914 176.110755784 63.3560410914 209.705078125 50.302734375 c 0,57,58
 248.40794944 35.2622257503 248.40794944 35.2622257503 304.625 32.7021484375 c 0,59,60
 369.850230472 29.7216796875 369.850230472 29.7216796875 511.19140625 29.7216796875 c 128,-1,61
 652.532787253 29.7216796875 652.532787253 29.7216796875 717.756835938 32.7021484375 c 0,62,63
 773.972177218 35.2619974291 773.972177218 35.2619974291 812.677734375 50.302734375 c 0,64,65
 846.275457873 63.3562941593 846.275457873 63.3562941593 871.455078125 88.5400390625 c 128,-1,66
 896.643996552 113.724833117 896.643996552 113.724833117 909.6953125 147.318359375 c 0,67,68
 924.73266339 186.029306643 924.73266339 186.029306643 927.297851562 242.243164062 c 0,69,70
 930.278320312 307.602700465 930.278320312 307.602700465 930.278320312 448.80859375 c 128,-1,71
 930.278320312 590.009542921 930.278320312 590.009542921 927.297851562 655.375 c 0,72,73
 924.732631109 711.58405771 924.732631109 711.58405771 909.6953125 750.294921875 c 0,74,75
 896.645743301 783.886701671 896.645743301 783.886701671 871.455078125 809.073242188 c 128,-1,76
 846.276760662 834.255684088 846.276760662 834.255684088 812.677734375 847.3125 c 0,77,78
 773.967455336 862.350874694 773.967455336 862.350874694 717.756835938 864.916015625 c 0,79,40
 652.455630618 867.893554688 652.455630618 867.893554688 511.19140625 867.893554688 c 128,-1,41
518.502929688 271.098632812 m 128,-1,81
 589.084960938 271.098632812 589.084960938 271.098632812 638.993164062 321.006835938 c 128,-1,82
 688.901367188 370.915039062 688.901367188 370.915039062 688.901367188 441.497070312 c 128,-1,83
 688.901367188 512.077787722 688.901367188 512.077787722 638.99308856 561.985671205 c 128,-1,84
 589.084809933 611.893554688 589.084809933 611.893554688 518.502929688 611.893554688 c 0,85,86
 472.214791325 611.893554688 472.214791325 611.893554688 432.961900956 589.091591554 c 128,-1,87
 393.709010587 566.28962842 393.709010587 566.28962842 370.906263106 527.037314696 c 128,-1,88
 348.103515625 487.785000973 348.103515625 487.785000973 348.103515625 441.497070312 c 0,89,90
 348.103515625 370.915469472 348.103515625 370.915469472 398.012724245 321.007051142 c 128,-1,80
 447.921932865 271.098632812 447.921932865 271.098632812 518.502929688 271.098632812 c 128,-1,81
518.502929688 704 m 128,-1,92
 627.234188732 704 627.234188732 704 704.119535772 627.113862668 c 128,-1,93
 781.004882812 550.227725335 781.004882812 550.227725335 781.004882812 441.497070312 c 128,-1,94
 781.004882812 332.762939453 781.004882812 332.762939453 704.119995117 255.878051758 c 128,-1,95
 627.235107422 178.993164062 627.235107422 178.993164062 518.502929688 178.993164062 c 128,-1,96
 409.770658814 178.993164062 409.770658814 178.993164062 332.885329407 255.878098326 c 128,-1,97
 256 332.763032589 256 332.763032589 256 441.497070312 c 128,-1,98
 256 550.227632198 256 550.227632198 332.885788755 627.113816099 c 128,-1,91
 409.771577509 704 409.771577509 704 518.502929688 704 c 128,-1,92
839.487304688 745.056640625 m 128,-1,100
 839.487304688 719.648419862 839.487304688 719.648419862 821.520132791 701.680655243 c 128,-1,101
 803.552960894 683.712890625 803.552960894 683.712890625 778.143554688 683.712890625 c 128,-1,102
 752.735839844 683.712890625 752.735839844 683.712890625 734.767822266 701.680908203 c 128,-1,103
 716.799804688 719.648925781 716.799804688 719.648925781 716.799804688 745.056640625 c 128,-1,104
 716.799804688 770.465483044 716.799804688 770.465483044 734.767653628 788.432936834 c 128,-1,105
 752.735502568 806.400390625 752.735502568 806.400390625 778.143554688 806.400390625 c 128,-1,106
 803.553298159 806.400390625 803.553298159 806.400390625 821.520301423 788.433189789 c 128,-1,99
 839.487304688 770.465988952 839.487304688 770.465988952 839.487304688 745.056640625 c 128,-1,100
EndSplineSet
Validated: 1
EndChar

StartChar: uniF908
Encoding: 63752 63752 12
Width: 1024
Flags: W
LayerCount: 2
Fore
SplineSet
51.2001953125 960 m 2,0,-1
 972.799804688 960 l 2,1,2
 994.0078125 960 994.0078125 960 1009.00390625 945.00390625 c 128,-1,3
 1024 930.0078125 1024 930.0078125 1024 908.799804688 c 2,4,-1
 1024 -12.7998046875 l 2,5,6
 1024 -34.0078125 1024 -34.0078125 1009.00390625 -49.00390625 c 128,-1,7
 994.0078125 -64 994.0078125 -64 972.799804688 -64 c 2,8,-1
 51.2001953125 -64 l 2,9,10
 29.9921875 -64 29.9921875 -64 14.99609375 -49.00390625 c 128,-1,11
 0 -34.0078125 0 -34.0078125 0 -12.7998046875 c 2,12,-1
 0 908.799804688 l 2,13,14
 0 930.0078125 0 930.0078125 14.99609375 945.00390625 c 128,-1,15
 29.9921875 960 29.9921875 960 51.2001953125 960 c 2,0,-1
358.400390625 755.200195312 m 2,16,-1
 665.599609375 755.200195312 l 2,17,18
 729.222900391 755.200195312 729.222900391 755.200195312 774.211547852 710.211547852 c 128,-1,19
 819.200195312 665.222900391 819.200195312 665.222900391 819.200195312 601.599609375 c 2,20,-1
 819.200195312 294.400390625 l 2,21,22
 819.200195312 230.777099609 819.200195312 230.777099609 774.211547852 185.788452148 c 128,-1,23
 729.222900391 140.799804688 729.222900391 140.799804688 665.599609375 140.799804688 c 2,24,-1
 358.400390625 140.799804688 l 2,25,26
 294.777099609 140.799804688 294.777099609 140.799804688 249.788452148 185.788452148 c 128,-1,27
 204.799804688 230.777099609 204.799804688 230.777099609 204.799804688 294.400390625 c 2,28,-1
 204.799804688 601.599609375 l 2,29,30
 204.799804688 665.222900391 204.799804688 665.222900391 249.788452148 710.211547852 c 128,-1,31
 294.777099609 755.200195312 294.777099609 755.200195312 358.400390625 755.200195312 c 2,16,-1
348.16015625 857.599609375 m 2,32,33
 246.363037109 857.599609375 246.363037109 857.599609375 174.381713867 785.618286133 c 128,-1,34
 102.400390625 713.636962891 102.400390625 713.636962891 102.400390625 611.83984375 c 2,35,-1
 102.400390625 284.16015625 l 2,36,37
 102.400390625 182.363037109 102.400390625 182.363037109 174.381713867 110.381713867 c 128,-1,38
 246.363037109 38.400390625 246.363037109 38.400390625 348.16015625 38.400390625 c 2,39,-1
 675.83984375 38.400390625 l 2,40,41
 777.636962891 38.400390625 777.636962891 38.400390625 849.618286133 110.381713867 c 128,-1,42
 921.599609375 182.363037109 921.599609375 182.363037109 921.599609375 284.16015625 c 2,43,-1
 921.599609375 611.83984375 l 2,44,45
 921.599609375 713.636962891 921.599609375 713.636962891 849.618286133 785.618286133 c 128,-1,46
 777.636962891 857.599609375 777.636962891 857.599609375 675.83984375 857.599609375 c 2,47,-1
 348.16015625 857.599609375 l 2,32,33
512 253.120117188 m 128,-1,49
 592.721679688 253.120117188 592.721679688 253.120117188 649.80078125 310.19921875 c 128,-1,50
 706.879882812 367.278320312 706.879882812 367.278320312 706.879882812 448 c 128,-1,51
 706.879882812 528.721679688 706.879882812 528.721679688 649.80078125 585.80078125 c 128,-1,52
 592.721679688 642.879882812 592.721679688 642.879882812 512 642.879882812 c 128,-1,53
 431.278320312 642.879882812 431.278320312 642.879882812 374.19921875 585.80078125 c 128,-1,54
 317.120117188 528.721679688 317.120117188 528.721679688 317.120117188 448 c 128,-1,55
 317.120117188 367.278320312 317.120117188 367.278320312 374.19921875 310.19921875 c 128,-1,48
 431.278320312 253.120117188 431.278320312 253.120117188 512 253.120117188 c 128,-1,49
512 336.639648438 m 128,-1,57
 465.873535156 336.639648438 465.873535156 336.639648438 433.256591797 369.256591797 c 128,-1,58
 400.639648438 401.873535156 400.639648438 401.873535156 400.639648438 448 c 128,-1,59
 400.639648438 494.126464844 400.639648438 494.126464844 433.256591797 526.743408203 c 128,-1,60
 465.873535156 559.360351562 465.873535156 559.360351562 512 559.360351562 c 128,-1,61
 558.126464844 559.360351562 558.126464844 559.360351562 590.743408203 526.743408203 c 128,-1,62
 623.360351562 494.126464844 623.360351562 494.126464844 623.360351562 448 c 128,-1,63
 623.360351562 401.873535156 623.360351562 401.873535156 590.743408203 369.256591797 c 128,-1,56
 558.126464844 336.639648438 558.126464844 336.639648438 512 336.639648438 c 128,-1,57
EndSplineSet
Validated: 1
EndChar

StartChar: uniF909
Encoding: 63753 63753 13
Width: 1024
Flags: W
LayerCount: 2
Fore
SplineSet
1024 -64 m 1,0,-1
 805.190429688 -64 l 1,1,-1
 805.190429688 259.961914062 l 2,2,3
 805.190429688 281.598734215 805.190429688 281.598734215 804.831422966 294.484193405 c 128,-1,4
 804.472416244 307.369652595 804.472416244 307.369652595 802.241597146 328.362417952 c 128,-1,5
 800.010778048 349.355183308 800.010778048 349.355183308 795.836069467 362.331439669 c 128,-1,6
 791.661360887 375.30769603 791.661360887 375.30769603 783.322034008 390.99810035 c 128,-1,7
 774.98270713 406.688504669 774.98270713 406.688504669 763.161802886 415.50578597 c 128,-1,8
 751.340898641 424.323067272 751.340898641 424.323067272 733.062570178 430.461338323 c 128,-1,9
 714.784241715 436.599609375 714.784241715 436.599609375 691.439453125 436.599609375 c 0,10,11
 658.423466303 436.599609375 658.423466303 436.599609375 634.146782897 426.82288404 c 128,-1,12
 609.870099492 417.046158706 609.870099492 417.046158706 595.906873353 401.717444085 c 128,-1,13
 581.943647214 386.388729463 581.943647214 386.388729463 573.657032897 362.939743415 c 128,-1,14
 565.370418581 339.490757368 565.370418581 339.490757368 562.756498353 316.988287835 c 128,-1,15
 560.142578125 294.485818302 560.142578125 294.485818302 560.142578125 265.51953125 c 2,16,-1
 560.142578125 -64 l 1,17,-1
 341.333007812 -64 l 1,18,-1
 341.333007812 602.173828125 l 1,19,-1
 551.315429688 602.173828125 l 1,20,-1
 551.315429688 511.076171875 l 1,21,-1
 554.293945312 511.076171875 l 1,22,23
 579.013546215 555.368552347 579.013546215 555.368552347 633.172029918 587.017772267 c 128,-1,24
 687.330513622 618.666992188 687.330513622 618.666992188 761.43359375 618.666992188 c 0,25,26
 826.204874151 618.666992188 826.204874151 618.666992188 873.709359269 602.382888536 c 128,-1,27
 921.213844387 586.098784885 921.213844387 586.098784885 949.756421981 559.147072401 c 128,-1,28
 978.298999575 532.195359918 978.298999575 532.195359918 995.266859269 490.047029161 c 128,-1,29
 1012.23471896 447.898698404 1012.23471896 447.898698404 1018.11735948 403.760509901 c 128,-1,30
 1024 359.622321398 1024 359.622321398 1024 301.375 c 2,31,-1
 1024 -64 l 1,0,-1
113.765625 732.444335938 m 0,32,33
 82.834988526 732.444335938 82.834988526 732.444335938 56.6247627565 747.678690881 c 128,-1,34
 30.414536987 762.913045825 30.414536987 762.913045825 15.2072684935 789.110046098 c 128,-1,35
 0 815.30704637 0 815.30704637 0 846.185546875 c 0,36,37
 0 893.328298767 0 893.328298767 33.3030576283 926.664149383 c 128,-1,38
 66.6061152565 960 66.6061152565 960 113.765625 960 c 128,-1,39
 160.856986294 960 160.856986294 960 194.206325178 926.652439673 c 128,-1,40
 227.555664062 893.304879347 227.555664062 893.304879347 227.555664062 846.185546875 c 128,-1,41
 227.555664062 799.116042161 227.555664062 799.116042161 194.203407262 765.780189049 c 128,-1,42
 160.851150461 732.444335938 160.851150461 732.444335938 113.765625 732.444335938 c 0,32,33
0 -64 m 1,43,-1
 0 618.666992188 l 1,44,-1
 227.555664062 618.666992188 l 1,45,-1
 227.555664062 -64 l 1,46,-1
 0 -64 l 1,43,-1
EndSplineSet
Validated: 1
EndChar

StartChar: uniF90A
Encoding: 63754 63754 14
Width: 1024
Flags: W
LayerCount: 2
Fore
SplineSet
51.2001953125 960 m 2,0,-1
 972.799804688 960 l 2,1,2
 994.0078125 960 994.0078125 960 1009.00390625 945.00390625 c 128,-1,3
 1024 930.0078125 1024 930.0078125 1024 908.799804688 c 2,4,-1
 1024 -12.7998046875 l 2,5,6
 1024 -34.0078125 1024 -34.0078125 1009.00390625 -49.00390625 c 128,-1,7
 994.0078125 -64 994.0078125 -64 972.799804688 -64 c 2,8,-1
 51.2001953125 -64 l 2,9,10
 29.9921875 -64 29.9921875 -64 14.99609375 -49.00390625 c 128,-1,11
 0 -34.0078125 0 -34.0078125 0 -12.7998046875 c 2,12,-1
 0 908.799804688 l 2,13,14
 0 930.0078125 0 930.0078125 14.99609375 945.00390625 c 128,-1,15
 29.9921875 960 29.9921875 960 51.2001953125 960 c 2,0,-1
819.200195312 192 m 1,16,-1
 819.200195312 383.821289062 l 2,17,18
 819.200195312 422.529860855 819.200195312 422.529860855 813.783347249 450.144421796 c 128,-1,19
 808.366499186 477.758982737 808.366499186 477.758982737 794.156350017 501.860461016 c 128,-1,20
 779.946200848 525.961939295 779.946200848 525.961939295 751.741355062 538.18116496 c 128,-1,21
 723.536509275 550.400390625 723.536509275 550.400390625 681.352539062 550.400390625 c 0,22,23
 642.448445804 550.400390625 642.448445804 550.400390625 614.015547829 533.7845658 c 128,-1,24
 585.582649854 517.168740975 585.582649854 517.168740975 572.604492188 493.915039062 c 1,25,-1
 571.040039062 493.915039062 l 1,26,-1
 571.040039062 541.741210938 l 1,27,-1
 460.799804688 541.741210938 l 1,28,-1
 460.799804688 192 l 1,29,-1
 575.674804688 192 l 1,30,-1
 575.674804688 364.998046875 l 2,31,32
 575.674804688 384.347618901 575.674804688 384.347618901 578.195666105 398.644499594 c 128,-1,33
 580.716527522 412.941380287 580.716527522 412.941380287 587.552899569 426.631577677 c 128,-1,34
 594.389271617 440.321775067 594.389271617 440.321775067 608.765429288 447.568114096 c 128,-1,35
 623.14158696 454.814453125 623.14158696 454.814453125 644.60546875 454.814453125 c 0,36,37
 661.53867283 454.814453125 661.53867283 454.814453125 673.396075315 448.59241701 c 128,-1,38
 685.253477799 442.370380895 685.253477799 442.370380895 691.169541873 434.32673924 c 128,-1,39
 697.085605946 426.283097585 697.085605946 426.283097585 700.222137815 411.774901385 c 128,-1,40
 703.358669683 397.266705185 703.358669683 397.266705185 703.841932498 387.77352049 c 128,-1,41
 704.325195312 378.280335795 704.325195312 378.280335795 704.325195312 362.080078125 c 2,42,-1
 704.325195312 192 l 1,43,-1
 819.200195312 192 l 1,16,-1
307.194335938 601.599609375 m 0,44,45
 328.382795411 601.599609375 328.382795411 601.599609375 343.391593018 616.600699217 c 128,-1,46
 358.400390625 631.601789059 358.400390625 631.601789059 358.400390625 652.783203125 c 128,-1,47
 358.400390625 673.986950121 358.400390625 673.986950121 343.392877595 688.99347506 c 128,-1,48
 328.385364565 704 328.385364565 704 307.194335938 704 c 128,-1,49
 285.972287478 704 285.972287478 704 270.986143739 688.998842658 c 128,-1,50
 256 673.997685316 256 673.997685316 256 652.783203125 c 0,51,52
 256 638.887654671 256 638.887654671 262.843119563 627.099029553 c 128,-1,53
 269.686239125 615.310404435 269.686239125 615.310404435 281.480773667 608.455006905 c 128,-1,54
 293.275308208 601.599609375 293.275308208 601.599609375 307.194335938 601.599609375 c 0,44,45
256 192 m 1,55,-1
 358.400390625 192 l 1,56,-1
 358.400390625 550.400390625 l 1,57,-1
 256 550.400390625 l 1,58,-1
 256 192 l 1,55,-1
EndSplineSet
Validated: 1
EndChar

StartChar: uniF90B
Encoding: 63755 63755 15
Width: 1024
Flags: W
LayerCount: 2
Fore
SplineSet
920.797851562 605.717773438 m 4,0,1
 920.797851562 521.467773438 920.797851562 521.467773438 896.228515625 437.002929688 c 132,-1,2
 871.66015625 352.538085938 871.66015625 352.538085938 821.16796875 275.317382812 c 132,-1,3
 770.67578125 198.095703125 770.67578125 198.095703125 700.877929688 138.501953125 c 132,-1,4
 631.080078125 78.9091796875 631.080078125 78.9091796875 533.076171875 43.486328125 c 132,-1,5
 435.073242188 8.0634765625 435.073242188 8.0634765625 323.02734375 8.111328125 c 4,6,7
 148.159179688 7.8798828125 148.159179688 7.8798828125 1 102.319335938 c 5,8,9
 25.9111328125 99.337890625 25.9111328125 99.337890625 51.01171875 99.2880859375 c 4,10,11
 197.079101562 99.1435546875 197.079101562 99.1435546875 311.927734375 189.400390625 c 5,12,13
 244.515625 190.666015625 244.515625 190.666015625 190.401367188 230.889648438 c 132,-1,14
 136.288085938 271.11328125 136.288085938 271.11328125 115.647460938 335.299804688 c 5,15,16
 163.497070312 326.084960938 163.497070312 326.084960938 210.510742188 338.904296875 c 5,17,18
 136.991210938 353.7578125 136.991210938 353.7578125 89.486328125 411.801757812 c 132,-1,19
 41.9814453125 469.846679688 41.9814453125 469.846679688 41.9599609375 544.8515625 c 6,20,-1
 41.9599609375 547.513671875 l 5,21,22
 86.427734375 522.7265625 86.427734375 522.7265625 137.314453125 521.217773438 c 5,23,24
 68.072265625 567.454101562 68.072265625 567.454101562 49.259765625 648.564453125 c 132,-1,25
 30.4482421875 729.674804688 30.4482421875 729.674804688 72.2705078125 801.670898438 c 5,26,27
 152.280273438 703.234375 152.280273438 703.234375 265.422851562 645.876953125 c 132,-1,28
 378.565429688 588.51953125 378.565429688 588.51953125 505.258789062 582.166015625 c 5,29,30
 497.15234375 619.3671875 497.15234375 619.3671875 501.36328125 655.233398438 c 132,-1,31
 505.575195312 691.098632812 505.575195312 691.098632812 522.266601562 724.265625 c 132,-1,32
 538.95703125 757.432617188 538.95703125 757.432617188 566.03515625 782.8984375 c 4,33,34
 629.490234375 842.572265625 629.490234375 842.572265625 716.553710938 839.900390625 c 132,-1,35
 803.6171875 837.228515625 803.6171875 837.228515625 863.290039062 773.776367188 c 5,36,37
 934.395507812 787.797851562 934.395507812 787.797851562 996.696289062 824.771484375 c 5,38,39
 972.3671875 749.298828125 972.3671875 749.298828125 904.33203125 708.568359375 c 5,40,41
 967.168945312 715.997070312 967.168945312 715.997070312 1025 741.623046875 c 5,42,43
 982.361328125 677.850585938 982.361328125 677.850585938 920.18359375 632.874023438 c 5,44,45
 920.797851562 623.86328125 920.797851562 623.86328125 920.797851562 605.717773438 c 4,0,1
EndSplineSet
Validated: 33
EndChar

StartChar: uniF90C
Encoding: 63756 63756 16
Width: 1024
Flags: W
LayerCount: 2
Fore
SplineSet
51.2001953125 960 m 2,0,-1
 972.799804688 960 l 2,1,2
 994.0078125 960 994.0078125 960 1009.00390625 945.00390625 c 128,-1,3
 1024 930.0078125 1024 930.0078125 1024 908.799804688 c 2,4,-1
 1024 -12.7998046875 l 2,5,6
 1024 -34.0078125 1024 -34.0078125 1009.00390625 -49.00390625 c 128,-1,7
 994.0078125 -64 994.0078125 -64 972.799804688 -64 c 2,8,-1
 51.2001953125 -64 l 2,9,10
 29.9921875 -64 29.9921875 -64 14.99609375 -49.00390625 c 128,-1,11
 0 -34.0078125 0 -34.0078125 0 -12.7998046875 c 2,12,-1
 0 908.799804688 l 2,13,14
 0 930.0078125 0 930.0078125 14.99609375 945.00390625 c 128,-1,15
 29.9921875 960 29.9921875 960 51.2001953125 960 c 2,0,-1
803.872070312 554.421875 m 0,16,17
 803.872070312 566.006835938 803.872070312 566.006835938 803.479492188 571.759765625 c 1,18,19
 843.177714619 600.475994679 843.177714619 600.475994679 870.400390625 641.190429688 c 1,20,21
 833.474448703 624.82947401 833.474448703 624.82947401 793.359375 620.086914062 c 1,22,23
 836.796209308 646.091143307 836.796209308 646.091143307 852.330078125 694.27734375 c 1,24,25
 812.552516845 670.671358049 812.552516845 670.671358049 767.155273438 661.719726562 c 1,26,27
 729.056834582 702.230766252 729.056834582 702.230766252 673.471069336 703.936401367 c 128,-1,28
 617.88530409 705.642036482 617.88530409 705.642036482 577.372070312 667.54296875 c 0,29,30
 551.246566497 642.973173536 551.246566497 642.973173536 540.853013583 608.647097466 c 128,-1,31
 530.45946067 574.321021396 530.45946067 574.321021396 538.569335938 539.384765625 c 1,32,33
 457.681925656 543.440928161 457.681925656 543.440928161 385.445757048 580.061241281 c 128,-1,34
 313.20958844 616.681554401 313.20958844 616.681554401 262.126953125 679.528320312 c 1,35,36
 235.425184372 633.562897771 235.425184372 633.562897771 247.435546875 581.77746582 c 128,-1,37
 259.445909378 529.99203387 259.445909378 529.99203387 303.654296875 500.471679688 c 1,38,39
 271.168212977 501.434714701 271.168212977 501.434714701 242.774414062 517.260742188 c 1,40,-1
 242.774414062 515.561523438 l 2,41,42
 242.78833001 467.673818692 242.78833001 467.673818692 273.118048998 430.615374967 c 128,-1,43
 303.447767985 393.556931243 303.447767985 393.556931243 350.38671875 384.07421875 c 1,44,45
 320.372489732 375.889734362 320.372489732 375.889734362 289.8203125 381.772460938 c 1,46,47
 302.998734559 340.792863727 302.998734559 340.792863727 337.548000278 315.111765267 c 128,-1,48
 372.097265997 289.430666808 372.097265997 289.430666808 415.13671875 288.622070312 c 1,49,50
 341.811100398 230.997885308 341.811100398 230.997885308 248.5546875 231.08984375 c 0,51,52
 232.521250317 231.122118946 232.521250317 231.122118946 216.624023438 233.025390625 c 1,53,54
 310.577988509 172.729836718 310.577988509 172.729836718 422.223632812 172.877929688 c 0,55,56
 493.75961977 172.847631027 493.75961977 172.847631027 556.330146807 195.463262267 c 128,-1,57
 618.900673844 218.078893506 618.900673844 218.078893506 663.463337568 256.126620546 c 128,-1,58
 708.026001291 294.174347586 708.026001291 294.174347586 740.262834307 343.476543517 c 128,-1,59
 772.499667323 392.778739447 772.499667323 392.778739447 788.185868818 446.705448671 c 128,-1,60
 803.872070312 500.632157895 803.872070312 500.632157895 803.872070312 554.421875 c 0,16,17
EndSplineSet
Validated: 33
EndChar

StartChar: uniF913
Encoding: 63763 63763 17
Width: 1024
Flags: W
LayerCount: 2
Fore
SplineSet
921.599609375 601.599609375 m 1,0,-1
 921.599609375 704 l 1,1,-1
 1024 704 l 1,2,-1
 1024 -12.7998046875 l 2,3,4
 1024 -34.0078125 1024 -34.0078125 1009.00390625 -49.00390625 c 128,-1,5
 994.0078125 -64 994.0078125 -64 972.799804688 -64 c 2,6,-1
 921.599609375 -64 l 1,7,-1
 76.7998046875 -64 l 1,8,-1
 51.2001953125 -64 l 2,9,10
 29.9921875 -64 29.9921875 -64 14.99609375 -49.00390625 c 128,-1,11
 0 -34.0078125 0 -34.0078125 0 -12.7998046875 c 2,12,-1
 0 755.200195312 l 2,13,14
 0 776.407639342 0 776.407639342 14.9961780685 791.404014984 c 128,-1,15
 29.9923561369 806.400390625 29.9923561369 806.400390625 51.2001953125 806.400390625 c 2,16,-1
 76.7998046875 806.400390625 l 1,17,-1
 204.799804688 806.400390625 l 1,18,-1
 204.799804688 908.799804688 l 2,19,20
 204.799804688 930.0078125 204.799804688 930.0078125 219.795898438 945.00390625 c 128,-1,21
 234.791992188 960 234.791992188 960 256 960 c 128,-1,22
 277.208007812 960 277.208007812 960 292.204101562 945.00390625 c 128,-1,23
 307.200195312 930.0078125 307.200195312 930.0078125 307.200195312 908.799804688 c 2,24,-1
 307.200195312 806.400390625 l 1,25,-1
 716.799804688 806.400390625 l 1,26,-1
 716.799804688 908.799804688 l 2,27,28
 716.799804688 930.0078125 716.799804688 930.0078125 731.795898438 945.00390625 c 128,-1,29
 746.791992188 960 746.791992188 960 768 960 c 128,-1,30
 789.208007812 960 789.208007812 960 804.204101562 945.00390625 c 128,-1,31
 819.200195312 930.0078125 819.200195312 930.0078125 819.200195312 908.799804688 c 2,32,-1
 819.200195312 806.400390625 l 1,33,-1
 972.799804688 806.400390625 l 2,34,35
 994.007643863 806.400390625 994.007643863 806.400390625 1009.00382193 791.404014984 c 128,-1,36
 1024 776.407639342 1024 776.407639342 1024 755.200195312 c 2,37,-1
 1024 704 l 1,38,-1
 102.400390625 704 l 1,39,-1
 102.400390625 601.599609375 l 1,40,-1
 921.599609375 601.599609375 l 1,0,-1
921.599609375 499.200195312 m 1,41,-1
 102.400390625 499.200195312 l 1,42,-1
 102.400390625 38.400390625 l 1,43,-1
 921.599609375 38.400390625 l 1,44,-1
 921.599609375 499.200195312 l 1,41,-1
307.200195312 396.799804688 m 2,45,-1
 716.799804688 396.799804688 l 2,46,47
 738.0078125 396.799804688 738.0078125 396.799804688 753.00390625 381.803710938 c 128,-1,48
 768 366.807617188 768 366.807617188 768 345.599609375 c 128,-1,49
 768 324.392258483 768 324.392258483 753.003868499 309.396324554 c 128,-1,50
 738.007736998 294.400390625 738.007736998 294.400390625 716.799804688 294.400390625 c 2,51,-1
 307.200195312 294.400390625 l 2,52,53
 285.992263002 294.400390625 285.992263002 294.400390625 270.996131501 309.396324554 c 128,-1,54
 256 324.392258483 256 324.392258483 256 345.599609375 c 128,-1,55
 256 366.807617188 256 366.807617188 270.99609375 381.803710938 c 128,-1,56
 285.9921875 396.799804688 285.9921875 396.799804688 307.200195312 396.799804688 c 2,45,-1
307.200195312 243.200195312 m 2,57,-1
 716.799804688 243.200195312 l 2,58,59
 738.0078125 243.200195312 738.0078125 243.200195312 753.00390625 228.204101562 c 128,-1,60
 768 213.208007812 768 213.208007812 768 192 c 128,-1,61
 768 170.791992188 768 170.791992188 753.00390625 155.795898438 c 128,-1,62
 738.0078125 140.799804688 738.0078125 140.799804688 716.799804688 140.799804688 c 2,63,-1
 307.200195312 140.799804688 l 2,64,65
 285.9921875 140.799804688 285.9921875 140.799804688 270.99609375 155.795898438 c 128,-1,66
 256 170.791992188 256 170.791992188 256 192 c 128,-1,67
 256 213.208007812 256 213.208007812 270.99609375 228.204101562 c 128,-1,68
 285.9921875 243.200195312 285.9921875 243.200195312 307.200195312 243.200195312 c 2,57,-1
EndSplineSet
Validated: 5
EndChar

StartChar: uniF914
Encoding: 63764 63764 18
Width: 1024
Flags: W
LayerCount: 2
Fore
SplineSet
14.99609375 104.595703125 m 128,-1,1
 0 119.591796875 0 119.591796875 0 140.799804688 c 2,2,-1
 0 857.599609375 l 1,3,-1
 102.400390625 857.599609375 l 1,4,-1
 102.400390625 192 l 1,5,-1
 256 192 l 2,6,7
 280.519641483 192 280.519641483 192 295.909179688 172.875976562 c 2,8,-1
 402.071289062 63.587890625 l 1,9,-1
 511.946289062 176.698242188 l 2,10,11
 512.201171875 176.960449219 512.201171875 176.960449219 512.459960938 177.219726562 c 0,12,13
 530.444624388 195.204390013 530.444624388 195.204390013 555.631835938 191.444335938 c 0,14,15
 559.379234375 192 559.379234375 192 563.200195312 192 c 2,16,-1
 921.599609375 192 l 1,17,-1
 921.599609375 652.896484375 l 1,18,-1
 921.599609375 857.599609375 l 1,19,-1
 1024 857.599609375 l 1,20,-1
 1024 140.799804688 l 2,21,22
 1024 119.591796875 1024 119.591796875 1009.00390625 104.595703125 c 128,-1,23
 994.006231801 89.599609375 994.006231801 89.599609375 972.799804688 89.599609375 c 2,24,-1
 570.083007812 89.599609375 l 1,25,-1
 445.795898438 -38.3466796875 l 2,26,27
 445.541015625 -38.6103515625 445.541015625 -38.6103515625 445.282226562 -38.8681640625 c 0,28,29
 427.281785326 -56.8700983677 427.281785326 -56.8700983677 402.071289062 -53.0869140625 c 1,30,31
 376.860792799 -56.8700983677 376.860792799 -56.8700983677 358.860351562 -38.8681640625 c 0,32,33
 358.630426371 -38.6395378833 358.630426371 -38.6395378833 358.345703125 -38.3466796875 c 2,34,-1
 234.05859375 89.599609375 l 1,35,-1
 51.2001953125 89.599609375 l 2,36,0
 29.9937681992 89.599609375 29.9937681992 89.599609375 14.99609375 104.595703125 c 128,-1,1
51.2001953125 960 m 2,37,-1
 972.799804688 960 l 2,38,39
 994.0078125 960 994.0078125 960 1009.00390625 945.00390625 c 128,-1,40
 1024 930.0078125 1024 930.0078125 1024 908.799804688 c 2,41,-1
 1024 857.599609375 l 1,42,-1
 0 857.599609375 l 1,43,-1
 0 908.799804688 l 2,44,45
 0 930.0078125 0 930.0078125 14.99609375 945.00390625 c 128,-1,46
 29.9921875 960 29.9921875 960 51.2001953125 960 c 2,37,-1
307.200195312 704 m 2,47,-1
 716.799804688 704 l 2,48,49
 738.0078125 704 738.0078125 704 753.00390625 689.00390625 c 128,-1,50
 768 674.0078125 768 674.0078125 768 652.799804688 c 128,-1,51
 768 631.592360658 768 631.592360658 753.003821932 616.595985016 c 128,-1,52
 738.007643863 601.599609375 738.007643863 601.599609375 716.799804688 601.599609375 c 2,53,-1
 307.200195312 601.599609375 l 2,54,55
 296.783488389 601.599609375 296.783488389 601.599609375 287.301876564 605.654480276 c 128,-1,56
 277.820264739 609.709351176 277.820264739 609.709351176 270.964877586 616.564864817 c 128,-1,57
 264.109490433 623.420378458 264.109490433 623.420378458 260.054745217 632.901886281 c 128,-1,58
 256 642.383394105 256 642.383394105 256 652.799804688 c 0,59,60
 256 674.0078125 256 674.0078125 270.99609375 689.00390625 c 128,-1,61
 285.9921875 704 285.9921875 704 307.200195312 704 c 2,47,-1
307.200195312 499.200195312 m 2,62,-1
 716.799804688 499.200195312 l 2,63,64
 738.0078125 499.200195312 738.0078125 499.200195312 753.00390625 484.204101562 c 128,-1,65
 768 469.208007812 768 469.208007812 768 448 c 128,-1,66
 768 426.791992188 768 426.791992188 753.00390625 411.795898438 c 128,-1,67
 738.0078125 396.799804688 738.0078125 396.799804688 716.799804688 396.799804688 c 2,68,-1
 307.200195312 396.799804688 l 2,69,70
 285.9921875 396.799804688 285.9921875 396.799804688 270.99609375 411.795898438 c 128,-1,71
 256 426.791992188 256 426.791992188 256 448 c 128,-1,72
 256 469.208007812 256 469.208007812 270.99609375 484.204101562 c 128,-1,73
 285.9921875 499.200195312 285.9921875 499.200195312 307.200195312 499.200195312 c 2,62,-1
EndSplineSet
Validated: 37
EndChar

StartChar: uniF915
Encoding: 63765 63765 19
Width: 1024
Flags: W
LayerCount: 2
Fore
SplineSet
358.296875 70.3583984375 m 4,0,1
 339.901367188 74.3076171875 339.901367188 74.3076171875 326.53515625 87.6728515625 c 6,2,-1
 55.0068359375 359.202148438 l 6,3,4
 36.26171875 377.947265625 36.26171875 377.947265625 36.26171875 404.45703125 c 132,-1,5
 36.26171875 430.966796875 36.26171875 430.966796875 55.0068359375 449.711914062 c 132,-1,6
 73.751953125 468.45703125 73.751953125 468.45703125 100.26171875 468.45703125 c 132,-1,7
 126.770507812 468.45703125 126.770507812 468.45703125 145.515625 449.711914062 c 6,8,-1
 401.959960938 193.267578125 l 5,9,-1
 876.469726562 667.77734375 l 6,10,11
 895.21484375 686.522460938 895.21484375 686.522460938 921.724609375 686.522460938 c 132,-1,12
 948.234375 686.522460938 948.234375 686.522460938 966.979492188 667.77734375 c 132,-1,13
 985.724609375 649.032226562 985.724609375 649.032226562 985.724609375 622.522460938 c 132,-1,14
 985.724609375 596.013671875 985.724609375 596.013671875 966.979492188 577.267578125 c 6,15,-1
 454.091796875 64.3798828125 l 6,16,17
 435.345703125 45.634765625 435.345703125 45.634765625 408.836914062 45.634765625 c 132,-1,18
 382.327148438 45.634765625 382.327148438 45.634765625 363.58203125 64.3798828125 c 4,19,20
 360.743164062 67.21875 360.743164062 67.21875 358.296875 70.3583984375 c 4,0,1
EndSplineSet
Validated: 1
EndChar

StartChar: uniF916
Encoding: 63766 63766 20
Width: 1024
Flags: W
LayerCount: 2
Fore
SplineSet
597 448 m 5,0,-1
 928.868164062 116.130859375 l 6,1,2
 947.61328125 97.3857421875 947.61328125 97.3857421875 947.61328125 70.8759765625 c 132,-1,3
 947.61328125 44.3671875 947.61328125 44.3671875 928.868164062 25.62109375 c 132,-1,4
 910.123046875 6.8759765625 910.123046875 6.8759765625 883.61328125 6.8759765625 c 132,-1,5
 857.103515625 6.8759765625 857.103515625 6.8759765625 838.358398438 25.62109375 c 6,6,-1
 506.490234375 357.490234375 l 5,7,-1
 174.62109375 25.62109375 l 6,8,9
 155.875976562 6.8759765625 155.875976562 6.8759765625 129.366210938 6.8759765625 c 132,-1,10
 102.857421875 6.8759765625 102.857421875 6.8759765625 84.111328125 25.62109375 c 132,-1,11
 65.3662109375 44.3662109375 65.3662109375 44.3662109375 65.3662109375 70.8759765625 c 132,-1,12
 65.3662109375 97.3857421875 65.3662109375 97.3857421875 84.111328125 116.130859375 c 6,13,-1
 415.98046875 448 l 5,14,-1
 84.111328125 779.869140625 l 6,15,16
 65.3662109375 798.614257812 65.3662109375 798.614257812 65.3662109375 825.124023438 c 132,-1,17
 65.3662109375 851.6328125 65.3662109375 851.6328125 84.111328125 870.37890625 c 132,-1,18
 102.856445312 889.124023438 102.856445312 889.124023438 129.366210938 889.124023438 c 132,-1,19
 155.875976562 889.124023438 155.875976562 889.124023438 174.62109375 870.37890625 c 6,20,-1
 506.490234375 538.509765625 l 5,21,-1
 838.358398438 870.37890625 l 6,22,23
 857.103515625 889.124023438 857.103515625 889.124023438 883.61328125 889.124023438 c 132,-1,24
 910.123046875 889.124023438 910.123046875 889.124023438 928.868164062 870.37890625 c 132,-1,25
 947.61328125 851.6328125 947.61328125 851.6328125 947.61328125 825.124023438 c 132,-1,26
 947.61328125 798.614257812 947.61328125 798.614257812 928.868164062 779.869140625 c 6,27,-1
 597 448 l 5,0,-1
EndSplineSet
Validated: 1
EndChar

StartChar: uniF917
Encoding: 63767 63767 21
Width: 1024
Flags: W
LayerCount: 2
Fore
SplineSet
460.799804688 499.200195312 m 1,0,-1
 460.799804688 140.799804688 l 1,1,-1
 921.599609375 140.799804688 l 1,2,-1
 921.599609375 499.200195312 l 1,3,-1
 460.799804688 499.200195312 l 1,0,-1
0 883.200195312 m 1,4,-1
 0 908.799804688 l 2,5,6
 0 930.0078125 0 930.0078125 14.99609375 945.00390625 c 128,-1,7
 29.9921875 960 29.9921875 960 51.2001953125 960 c 2,8,-1
 614.400390625 960 l 2,9,10
 635.609002408 960 635.609002408 960 650.603515625 945.00390625 c 128,-1,11
 665.599609375 930.0078125 665.599609375 930.0078125 665.599609375 908.799804688 c 2,12,-1
 665.599609375 704 l 1,13,-1
 563.200195312 704 l 1,14,-1
 563.200195312 857.599609375 l 1,15,-1
 102.400390625 857.599609375 l 1,16,-1
 102.400390625 396.799804688 l 1,17,-1
 256 396.799804688 l 1,18,-1
 256 294.400390625 l 1,19,-1
 51.2001953125 294.400390625 l 2,20,21
 29.9921875 294.400390625 29.9921875 294.400390625 14.99609375 309.396484375 c 128,-1,22
 0 324.390997592 0 324.390997592 0 345.599609375 c 2,23,-1
 0 883.200195312 l 1,4,-1
409.599609375 601.599609375 m 2,24,-1
 972.799804688 601.599609375 l 2,25,26
 994.007736998 601.599609375 994.007736998 601.599609375 1009.0038685 586.603675446 c 128,-1,27
 1024 571.607741517 1024 571.607741517 1024 550.400390625 c 2,28,-1
 1024 89.599609375 l 2,29,30
 1024 79.1832092009 1024 79.1832092009 1019.94525888 69.7018452916 c 128,-1,31
 1015.89051777 60.2204813823 1015.89051777 60.2204813823 1009.03511831 53.3651560512 c 128,-1,32
 1002.17971886 46.50983072 1002.17971886 46.50983072 992.698127537 42.4551106725 c 128,-1,33
 983.216536219 38.400390625 983.216536219 38.400390625 972.799804688 38.400390625 c 2,34,-1
 409.599609375 38.400390625 l 2,35,36
 388.392333984 38.400390625 388.392333984 38.400390625 373.396362305 53.3963623047 c 128,-1,37
 358.400390625 68.3923339844 358.400390625 68.3923339844 358.400390625 89.599609375 c 2,38,-1
 358.400390625 550.400390625 l 2,39,40
 358.400390625 571.607666016 358.400390625 571.607666016 373.396362305 586.603637695 c 128,-1,41
 388.392333984 601.599609375 388.392333984 601.599609375 409.599609375 601.599609375 c 2,24,-1
EndSplineSet
Validated: 1
EndChar

StartChar: uniF918
Encoding: 63768 63768 22
Width: 1024
Flags: W
LayerCount: 2
Fore
SplineSet
173 457 m 132,-1,1
 173 597 173 597 272 696 c 132,-1,2
 371 795 371 795 511 795 c 132,-1,3
 651 795 651 795 750 696 c 132,-1,4
 849 597 849 597 849 457 c 132,-1,5
 849 317 849 317 750 218 c 132,-1,6
 651 119 651 119 511 119 c 132,-1,7
 371 119 371 119 272 218 c 132,-1,0
 173 317 173 317 173 457 c 132,-1,1
EndSplineSet
Validated: 1
EndChar

StartChar: uniF919
Encoding: 63769 63769 23
Width: 1024
Flags: W
LayerCount: 2
Fore
SplineSet
76.7998046875 550.400390625 m 1,0,-1
 307.200195312 550.400390625 l 1,1,-1
 307.200195312 448 l 1,2,-1
 102.400390625 448 l 1,3,-1
 102.400390625 243.200195312 l 1,4,-1
 307.200195312 243.200195312 l 1,5,-1
 307.200195312 704 l 2,6,7
 307.200195312 725.208007812 307.200195312 725.208007812 322.196289062 740.204101562 c 128,-1,8
 337.192382812 755.200195312 337.192382812 755.200195312 358.400390625 755.200195312 c 2,9,-1
 384 755.200195312 l 1,10,-1
 614.400390625 755.200195312 l 1,11,-1
 614.400390625 908.799804688 l 2,12,13
 614.400390625 930.007736998 614.400390625 930.007736998 629.396324554 945.003868499 c 128,-1,14
 644.392258483 960 644.392258483 960 665.599609375 960 c 2,15,-1
 716.799804688 960 l 1,16,-1
 716.799804688 243.200195312 l 1,17,-1
 921.599609375 243.200195312 l 1,18,-1
 921.599609375 857.599609375 l 1,19,-1
 716.799804688 857.599609375 l 1,20,-1
 716.799804688 960 l 1,21,-1
 947.200195312 960 l 1,22,-1
 972.799804688 960 l 2,23,24
 994.0078125 960 994.0078125 960 1009.00390625 945.00390625 c 128,-1,25
 1024 930.0078125 1024 930.0078125 1024 908.799804688 c 2,26,-1
 1024 217.599609375 l 1,27,-1
 1024 192 l 2,28,29
 1024 170.791992188 1024 170.791992188 1009.00390625 155.795898438 c 128,-1,30
 994.0078125 140.799804688 994.0078125 140.799804688 972.799804688 140.799804688 c 2,31,-1
 51.2001953125 140.799804688 l 2,32,33
 29.9921875 140.799804688 29.9921875 140.799804688 14.99609375 155.795898438 c 128,-1,34
 0 170.791992188 0 170.791992188 0 192 c 2,35,-1
 0 217.599609375 l 1,36,-1
 0 499.200195312 l 2,37,38
 0 520.407639342 0 520.407639342 14.9961780685 535.404014984 c 128,-1,39
 29.9923561369 550.400390625 29.9923561369 550.400390625 51.2001953125 550.400390625 c 2,40,-1
 76.7998046875 550.400390625 l 1,0,-1
614.400390625 243.200195312 m 1,41,-1
 614.400390625 652.799804688 l 1,42,-1
 409.599609375 652.799804688 l 1,43,-1
 409.599609375 243.200195312 l 1,44,-1
 614.400390625 243.200195312 l 1,41,-1
51.2001953125 38.400390625 m 2,45,-1
 972.799804688 38.400390625 l 2,46,47
 994.007643863 38.400390625 994.007643863 38.400390625 1009.00382193 23.4040149836 c 128,-1,48
 1024 8.40763934228 1024 8.40763934228 1024 -12.7998046875 c 128,-1,49
 1024 -34.0078125 1024 -34.0078125 1009.00390625 -49.00390625 c 128,-1,50
 994.0078125 -64 994.0078125 -64 972.799804688 -64 c 2,51,-1
 51.2001953125 -64 l 2,52,53
 29.9921875 -64 29.9921875 -64 14.99609375 -49.00390625 c 128,-1,54
 0 -34.0078125 0 -34.0078125 0 -12.7998046875 c 128,-1,55
 0 8.40763934228 0 8.40763934228 14.9961780685 23.4040149836 c 128,-1,56
 29.9923561369 38.400390625 29.9923561369 38.400390625 51.2001953125 38.400390625 c 2,45,-1
EndSplineSet
Validated: 5
EndChar

StartChar: uniF91A
Encoding: 63770 63770 24
Width: 1024
Flags: W
LayerCount: 2
Fore
SplineSet
304.348632812 465.184570312 m 132,-1,1
 304.348632812 408.630859375 304.348632812 408.630859375 264.359375 368.640625 c 132,-1,2
 224.369140625 328.651367188 224.369140625 328.651367188 167.815429688 328.651367188 c 132,-1,3
 111.26171875 328.651367188 111.26171875 328.651367188 71.271484375 368.640625 c 132,-1,4
 31.2822265625 408.630859375 31.2822265625 408.630859375 31.2822265625 465.184570312 c 132,-1,5
 31.2822265625 521.73828125 31.2822265625 521.73828125 71.271484375 561.728515625 c 132,-1,6
 111.26171875 601.717773438 111.26171875 601.717773438 167.815429688 601.717773438 c 132,-1,7
 224.369140625 601.717773438 224.369140625 601.717773438 264.359375 561.728515625 c 132,-1,0
 304.348632812 521.73828125 304.348632812 521.73828125 304.348632812 465.184570312 c 132,-1,1
99.548828125 465.184570312 m 132,-1,9
 99.548828125 436.907226562 99.548828125 436.907226562 119.543945312 416.913085938 c 132,-1,10
 139.5390625 396.91796875 139.5390625 396.91796875 167.815429688 396.91796875 c 132,-1,11
 196.092773438 396.91796875 196.092773438 396.91796875 216.087890625 416.912109375 c 132,-1,12
 236.08203125 436.907226562 236.08203125 436.907226562 236.08203125 465.184570312 c 132,-1,13
 236.08203125 493.4609375 236.08203125 493.4609375 216.086914062 513.456054688 c 132,-1,14
 196.092773438 533.451171875 196.092773438 533.451171875 167.815429688 533.451171875 c 132,-1,15
 139.5390625 533.451171875 139.5390625 533.451171875 119.543945312 513.456054688 c 132,-1,8
 99.548828125 493.4609375 99.548828125 493.4609375 99.548828125 465.184570312 c 132,-1,9
645.682617188 465.184570312 m 132,-1,17
 645.682617188 408.630859375 645.682617188 408.630859375 605.692382812 368.640625 c 132,-1,18
 565.702148438 328.651367188 565.702148438 328.651367188 509.1484375 328.651367188 c 132,-1,19
 452.594726562 328.651367188 452.594726562 328.651367188 412.604492188 368.640625 c 132,-1,20
 372.615234375 408.630859375 372.615234375 408.630859375 372.615234375 465.184570312 c 132,-1,21
 372.615234375 521.73828125 372.615234375 521.73828125 412.604492188 561.728515625 c 132,-1,22
 452.594726562 601.717773438 452.594726562 601.717773438 509.1484375 601.717773438 c 132,-1,23
 565.702148438 601.717773438 565.702148438 601.717773438 605.692382812 561.728515625 c 132,-1,16
 645.682617188 521.73828125 645.682617188 521.73828125 645.682617188 465.184570312 c 132,-1,17
440.881835938 465.184570312 m 132,-1,25
 440.881835938 436.907226562 440.881835938 436.907226562 460.876953125 416.913085938 c 132,-1,26
 480.872070312 396.91796875 480.872070312 396.91796875 509.1484375 396.91796875 c 132,-1,27
 537.42578125 396.91796875 537.42578125 396.91796875 557.419921875 416.912109375 c 132,-1,28
 577.415039062 436.907226562 577.415039062 436.907226562 577.415039062 465.184570312 c 132,-1,29
 577.415039062 493.4609375 577.415039062 493.4609375 557.419921875 513.456054688 c 132,-1,30
 537.42578125 533.451171875 537.42578125 533.451171875 509.1484375 533.451171875 c 132,-1,31
 480.872070312 533.451171875 480.872070312 533.451171875 460.876953125 513.456054688 c 132,-1,24
 440.881835938 493.4609375 440.881835938 493.4609375 440.881835938 465.184570312 c 132,-1,25
987.015625 465.184570312 m 132,-1,33
 987.015625 408.630859375 987.015625 408.630859375 947.026367188 368.640625 c 132,-1,34
 907.036132812 328.651367188 907.036132812 328.651367188 850.482421875 328.651367188 c 132,-1,35
 793.928710938 328.651367188 793.928710938 328.651367188 753.938476562 368.640625 c 132,-1,36
 713.94921875 408.630859375 713.94921875 408.630859375 713.94921875 465.184570312 c 132,-1,37
 713.94921875 521.73828125 713.94921875 521.73828125 753.938476562 561.728515625 c 132,-1,38
 793.928710938 601.717773438 793.928710938 601.717773438 850.482421875 601.717773438 c 132,-1,39
 907.036132812 601.717773438 907.036132812 601.717773438 947.026367188 561.728515625 c 132,-1,32
 987.015625 521.73828125 987.015625 521.73828125 987.015625 465.184570312 c 132,-1,33
782.215820312 465.184570312 m 132,-1,41
 782.215820312 436.907226562 782.215820312 436.907226562 802.2109375 416.912109375 c 132,-1,42
 822.205078125 396.91796875 822.205078125 396.91796875 850.482421875 396.91796875 c 132,-1,43
 878.758789062 396.91796875 878.758789062 396.91796875 898.75390625 416.913085938 c 132,-1,44
 918.749023438 436.907226562 918.749023438 436.907226562 918.749023438 465.184570312 c 132,-1,45
 918.749023438 493.4609375 918.749023438 493.4609375 898.75390625 513.456054688 c 132,-1,46
 878.758789062 533.451171875 878.758789062 533.451171875 850.482421875 533.451171875 c 132,-1,47
 822.205078125 533.451171875 822.205078125 533.451171875 802.2109375 513.456054688 c 132,-1,40
 782.215820312 493.4609375 782.215820312 493.4609375 782.215820312 465.184570312 c 132,-1,41
EndSplineSet
Validated: 1
EndChar

StartChar: uniF91B
Encoding: 63771 63771 25
Width: 1024
Flags: W
LayerCount: 2
Fore
SplineSet
562.266601562 503.333007812 m 5,0,-1
 937.733398438 503.333007812 l 6,1,2
 958.94140625 503.333007812 958.94140625 503.333007812 973.9375 488.336914062 c 132,-1,3
 988.93359375 473.340820312 988.93359375 473.340820312 988.93359375 452.133789062 c 132,-1,4
 988.93359375 430.92578125 988.93359375 430.92578125 973.9375 415.9296875 c 132,-1,5
 958.94140625 400.93359375 958.94140625 400.93359375 937.733398438 400.93359375 c 6,6,-1
 562.266601562 400.93359375 l 5,7,-1
 562.266601562 25.466796875 l 6,8,9
 562.266601562 4.2587890625 562.266601562 4.2587890625 547.270507812 -10.7373046875 c 132,-1,10
 532.274414062 -25.7333984375 532.274414062 -25.7333984375 511.06640625 -25.7333984375 c 132,-1,11
 489.859375 -25.7333984375 489.859375 -25.7333984375 474.862304688 -10.7373046875 c 132,-1,12
 459.866210938 4.2587890625 459.866210938 4.2587890625 459.866210938 25.466796875 c 6,13,-1
 459.866210938 400.93359375 l 5,14,-1
 84.400390625 400.93359375 l 6,15,16
 63.1923828125 400.93359375 63.1923828125 400.93359375 48.1962890625 415.9296875 c 132,-1,17
 33.2001953125 430.92578125 33.2001953125 430.92578125 33.2001953125 452.133789062 c 4,18,19
 33.2001953125 466.041992188 33.2001953125 466.041992188 40.0517578125 477.8359375 c 132,-1,20
 46.9033203125 489.629882812 46.9033203125 489.629882812 58.697265625 496.481445312 c 132,-1,21
 70.4921875 503.333007812 70.4921875 503.333007812 84.400390625 503.333007812 c 6,22,-1
 459.866210938 503.333007812 l 5,23,-1
 459.866210938 878.799804688 l 6,24,25
 459.866210938 900.0078125 459.866210938 900.0078125 474.862304688 915.00390625 c 132,-1,26
 489.859375 930 489.859375 930 511.06640625 930 c 132,-1,27
 532.274414062 930 532.274414062 930 547.270507812 915.00390625 c 132,-1,28
 562.266601562 900.0078125 562.266601562 900.0078125 562.266601562 878.799804688 c 6,29,-1
 562.266601562 503.333007812 l 5,0,-1
EndSplineSet
Validated: 1
EndChar

StartChar: uniF91C
Encoding: 63772 63772 26
Width: 1024
Flags: W
LayerCount: 2
Fore
SplineSet
214.358398438 198.899414062 m 6,0,1
 235.879882812 210.732421875 235.879882812 210.732421875 263.74609375 210.390625 c 132,-1,2
 291.612304688 210.047851562 291.612304688 210.047851562 312.848632812 197.696289062 c 6,3,-1
 390.170898438 152.745117188 l 6,4,5
 411.317382812 140.483398438 411.317382812 140.483398438 425.512695312 116.499023438 c 132,-1,6
 439.708007812 92.515625 439.708007812 92.515625 440.311523438 68.033203125 c 6,7,-1
 441.686523438 14.7734375 l 5,8,-1
 573.821289062 14.900390625 l 5,9,-1
 575.1953125 68.0576171875 l 6,10,11
 575.80078125 92.544921875 575.80078125 92.544921875 589.977539062 116.518554688 c 132,-1,12
 604.153320312 140.4921875 604.153320312 140.4921875 625.322265625 152.8046875 c 6,13,-1
 702.69921875 197.719726562 l 6,14,15
 723.909179688 210.016601562 723.909179688 210.016601562 751.76953125 210.372070312 c 132,-1,16
 779.62890625 210.7265625 779.62890625 210.7265625 801.055664062 198.951171875 c 6,17,-1
 847.224609375 173.719726562 l 5,18,-1
 913.469726562 289.2109375 l 5,19,-1
 868.311523438 317.03515625 l 6,20,21
 847.500976562 329.866210938 847.500976562 329.866210938 833.956054688 354.184570312 c 132,-1,22
 820.411132812 378.501953125 820.411132812 378.501953125 820.411132812 402.999023438 c 6,23,-1
 820.34375 492.904296875 l 6,24,25
 820.34375 517.359375 820.34375 517.359375 833.905273438 541.724609375 c 132,-1,26
 847.466796875 566.08984375 847.466796875 566.08984375 868.25390625 578.903320312 c 6,27,-1
 913.404296875 606.72265625 l 5,28,-1
 847.237304688 722.25390625 l 5,29,-1
 801.147460938 697.100585938 l 6,30,31
 779.626953125 685.267578125 779.626953125 685.267578125 751.760742188 685.609375 c 132,-1,32
 723.89453125 685.952148438 723.89453125 685.952148438 702.658203125 698.303710938 c 6,33,-1
 625.3359375 743.254882812 l 6,34,35
 616.991210938 748.09375 616.991210938 748.09375 609.392578125 755.173828125 c 132,-1,36
 601.794921875 762.252929688 601.794921875 762.252929688 595.716796875 770.771484375 c 132,-1,37
 589.638671875 779.2890625 589.638671875 779.2890625 585.092773438 788.719726562 c 132,-1,38
 580.547851562 798.149414062 580.547851562 798.149414062 577.990234375 808.227539062 c 132,-1,39
 575.432617188 818.305664062 575.432617188 818.305664062 575.194335938 827.966796875 c 6,40,-1
 573.8203125 881.2265625 l 5,41,-1
 441.684570312 881.099609375 l 5,42,-1
 440.311523438 827.942382812 l 6,43,44
 439.706054688 803.455078125 439.706054688 803.455078125 425.529296875 779.481445312 c 132,-1,45
 411.352539062 755.506835938 411.352539062 755.506835938 390.18359375 743.1953125 c 6,46,-1
 312.806640625 698.280273438 l 6,47,48
 291.59765625 685.983398438 291.59765625 685.983398438 263.737304688 685.627929688 c 132,-1,49
 235.876953125 685.2734375 235.876953125 685.2734375 214.450195312 697.048828125 c 6,50,-1
 168.28125 722.280273438 l 5,51,-1
 102.036132812 606.7890625 l 5,52,-1
 147.194335938 578.96484375 l 6,53,54
 168.005859375 566.133789062 168.005859375 566.133789062 181.55078125 541.815429688 c 132,-1,55
 195.095703125 517.498046875 195.095703125 517.498046875 195.095703125 493.000976562 c 6,56,-1
 195.162109375 403.095703125 l 6,57,58
 195.162109375 378.640625 195.162109375 378.640625 181.600585938 354.275390625 c 132,-1,59
 168.0390625 329.91015625 168.0390625 329.91015625 147.251953125 317.096679688 c 6,60,-1
 102.1015625 289.27734375 l 5,61,-1
 168.26953125 173.74609375 l 5,62,-1
 214.358398438 198.899414062 l 6,0,1
170.19140625 170.389648438 m 6,63,-1
 168.26953125 173.74609375 l 5,64,-1
 164.486328125 171.681640625 l 6,65,66
 168.265625 173.73828125 168.265625 173.73828125 170.19140625 170.389648438 c 6,63,-1
101.875976562 131.176757812 m 6,67,-1
 32.0439453125 253.107421875 l 6,68,69
 16.9736328125 279.322265625 16.9736328125 279.322265625 24.3837890625 308.896484375 c 132,-1,70
 31.794921875 338.470703125 31.794921875 338.470703125 57.490234375 354.310546875 c 6,71,-1
 105.924804688 384.153320312 l 6,72,73
 109.236328125 386.1953125 109.236328125 386.1953125 112.814453125 392.651367188 c 132,-1,74
 116.393554688 399.108398438 116.393554688 399.108398438 116.393554688 403.06640625 c 6,75,-1
 116.326171875 492.971679688 l 6,76,77
 116.326171875 494.928710938 116.326171875 494.928710938 115.30859375 497.813476562 c 132,-1,78
 114.291992188 500.698242188 114.291992188 500.698242188 112.772460938 503.438476562 c 132,-1,79
 111.252929688 506.1796875 111.252929688 506.1796875 109.368164062 508.544921875 c 132,-1,80
 107.483398438 510.911132812 107.483398438 510.911132812 105.865234375 511.909179688 c 6,81,-1
 57.416015625 541.760742188 l 6,82,83
 31.6953125 557.616210938 31.6953125 557.616210938 24.2802734375 587.170898438 c 132,-1,84
 16.865234375 616.724609375 16.865234375 616.724609375 31.9775390625 642.9609375 c 6,85,-1
 101.888671875 764.84375 l 6,86,87
 117.00390625 791.198242188 117.00390625 791.198242188 146.303710938 799.569335938 c 132,-1,88
 175.603515625 807.939453125 175.603515625 807.939453125 202.307617188 793.44921875 c 6,89,-1
 252.3203125 766.1171875 l 6,90,91
 255.62109375 764.297851562 255.62109375 764.297851562 262.796875 764.397460938 c 132,-1,92
 269.97265625 764.49609375 269.97265625 764.49609375 273.280273438 766.4140625 c 6,93,-1
 350.611328125 811.302734375 l 6,94,95
 354.022460938 813.287109375 354.022460938 813.287109375 357.745117188 819.606445312 c 132,-1,96
 361.467773438 825.92578125 361.467773438 825.92578125 361.567382812 829.932617188 c 6,97,-1
 363.045898438 887.151367188 l 6,98,99
 363.46484375 902.03515625 363.46484375 902.03515625 369.561523438 915.504882812 c 132,-1,100
 375.658203125 928.974609375 375.658203125 928.974609375 385.640625 938.693359375 c 132,-1,101
 395.624023438 948.413085938 395.624023438 948.413085938 409.26171875 954.138671875 c 132,-1,102
 422.8984375 959.865234375 422.8984375 959.865234375 437.802734375 959.865234375 c 6,103,-1
 577.6640625 960 l 6,104,105
 607.93359375 960 607.93359375 960 629.767578125 938.745117188 c 132,-1,106
 651.602539062 917.491210938 651.602539062 917.491210938 652.4609375 887.193359375 c 6,107,-1
 653.938476562 829.954101562 l 6,108,109
 654.036132812 825.973632812 654.036132812 825.973632812 657.763671875 819.658203125 c 132,-1,110
 661.491210938 813.342773438 661.491210938 813.342773438 664.887695312 811.374023438 c 6,111,-1
 742.252929688 766.397460938 l 6,112,113
 745.583984375 764.4609375 745.583984375 764.4609375 752.725585938 764.381835938 c 132,-1,114
 759.868164062 764.301757812 759.868164062 764.301757812 763.298828125 766.180664062 c 6,115,-1
 813.278320312 793.45703125 l 6,116,117
 839.896484375 807.96875 839.896484375 807.96875 869.166992188 799.600585938 c 132,-1,118
 898.4375 791.232421875 898.4375 791.232421875 913.629882812 764.823242188 c 6,119,-1
 983.462890625 642.892578125 l 6,120,121
 998.533203125 616.677734375 998.533203125 616.677734375 991.123046875 587.103515625 c 132,-1,122
 983.711914062 557.529296875 983.711914062 557.529296875 958.015625 541.689453125 c 6,123,-1
 909.581054688 511.846679688 l 6,124,125
 907.979492188 510.859375 907.979492188 510.859375 906.094726562 508.483398438 c 132,-1,126
 904.208984375 506.106445312 904.208984375 506.106445312 902.685546875 503.358398438 c 132,-1,127
 901.162109375 500.609375 901.162109375 500.609375 900.137695312 497.731445312 c 132,-1,128
 899.11328125 494.852539062 899.11328125 494.852539062 899.11328125 492.93359375 c 6,129,-1
 899.180664062 403.028320312 l 6,130,131
 899.180664062 400.416015625 899.180664062 400.416015625 900.853515625 396.424804688 c 132,-1,132
 902.526367188 392.434570312 902.526367188 392.434570312 905.001953125 388.9296875 c 132,-1,133
 907.477539062 385.424804688 907.477539062 385.424804688 909.640625 384.090820312 c 6,134,-1
 958.08984375 354.239257812 l 6,135,136
 983.810546875 338.383789062 983.810546875 338.383789062 991.2265625 308.829101562 c 132,-1,137
 998.641601562 279.275390625 998.641601562 279.275390625 983.529296875 253.0390625 c 6,138,-1
 913.618164062 131.15625 l 6,139,140
 898.502929688 104.801757812 898.502929688 104.801757812 869.203125 96.4306640625 c 132,-1,141
 839.90234375 88.060546875 839.90234375 88.060546875 813.198242188 102.55078125 c 6,142,-1
 763.186523438 129.8828125 l 6,143,144
 759.884765625 131.702148438 759.884765625 131.702148438 752.708984375 131.602539062 c 132,-1,145
 745.533203125 131.50390625 745.533203125 131.50390625 742.2265625 129.5859375 c 6,146,-1
 664.895507812 84.697265625 l 6,147,148
 661.484375 82.712890625 661.484375 82.712890625 657.76171875 76.3935546875 c 132,-1,149
 654.038085938 70.07421875 654.038085938 70.07421875 653.939453125 66.0673828125 c 6,150,-1
 652.4609375 8.8486328125 l 6,151,152
 651.606445312 -21.4482421875 651.606445312 -21.4482421875 629.81640625 -42.65625 c 132,-1,153
 608.025390625 -63.865234375 608.025390625 -63.865234375 577.704101562 -63.865234375 c 6,154,-1
 437.841796875 -64 l 6,155,156
 417.984375 -64 417.984375 -64 400.965820312 -54.294921875 c 132,-1,157
 383.947265625 -44.5888671875 383.947265625 -44.5888671875 373.77734375 -27.8291015625 c 132,-1,158
 363.608398438 -11.0693359375 363.608398438 -11.0693359375 363.044921875 8.806640625 c 6,159,-1
 361.567382812 66.046875 l 6,160,161
 361.469726562 70.0263671875 361.469726562 70.0263671875 357.7421875 76.341796875 c 132,-1,162
 354.014648438 82.6572265625 354.014648438 82.6572265625 350.619140625 84.6259765625 c 6,163,-1
 273.25390625 129.602539062 l 6,164,165
 269.922851562 131.5390625 269.922851562 131.5390625 262.780273438 131.618164062 c 132,-1,166
 255.637695312 131.698242188 255.637695312 131.698242188 252.20703125 129.819335938 c 6,167,-1
 202.223632812 102.541015625 l 6,168,169
 175.606445312 88.03125 175.606445312 88.03125 146.336914062 96.400390625 c 132,-1,170
 117.068359375 104.768554688 117.068359375 104.768554688 101.875976562 131.176757812 c 6,67,-1
384.899414062 234.336914062 m 132,-1,172
 296.91015625 285.463867188 296.91015625 285.463867188 270.620117188 384.168945312 c 132,-1,173
 244.329101562 482.874023438 244.329101562 482.874023438 295.125976562 571.32421875 c 132,-1,174
 345.958984375 659.935546875 345.958984375 659.935546875 444.241210938 686.416992188 c 132,-1,175
 542.5234375 712.8984375 542.5234375 712.8984375 630.609375 661.677734375 c 132,-1,176
 718.608398438 610.544921875 718.608398438 610.544921875 744.90234375 511.837890625 c 132,-1,177
 771.196289062 413.130859375 771.196289062 413.130859375 720.397460938 324.682617188 c 132,-1,178
 669.564453125 236.069335938 669.564453125 236.069335938 571.28125 209.590820312 c 132,-1,171
 472.997070312 183.111328125 472.997070312 183.111328125 384.899414062 234.336914062 c 132,-1,172
424.489257812 302.434570312 m 132,-1,180
 484.220703125 267.681640625 484.220703125 267.681640625 550.876953125 285.673828125 c 132,-1,181
 617.532226562 303.666992188 617.532226562 303.666992188 652.081054688 363.892578125 c 132,-1,182
 686.701171875 424.200195312 686.701171875 424.200195312 668.802734375 491.491210938 c 132,-1,183
 650.905273438 558.782226562 650.905273438 558.782226562 591.01953125 593.580078125 c 132,-1,184
 531.299804688 628.328125 531.299804688 628.328125 464.645507812 610.333007812 c 132,-1,185
 397.991210938 592.337890625 397.991210938 592.337890625 363.442382812 532.11328125 c 132,-1,186
 328.82421875 471.8046875 328.82421875 471.8046875 346.71875 404.515625 c 132,-1,179
 364.614257812 337.225585938 364.614257812 337.225585938 424.489257812 302.434570312 c 132,-1,180
EndSplineSet
Validated: 37
EndChar

StartChar: uniF91D
Encoding: 63773 63773 27
Width: 1024
Flags: W
LayerCount: 2
Fore
SplineSet
456.306640625 523.836914062 m 1,0,-1
 672.208007812 740.13671875 l 2,1,2
 687.157320181 755.18051371 687.157320181 755.18051371 708.364990234 755.200073242 c 128,-1,3
 729.572660288 755.219632775 729.572660288 755.219632775 744.583007812 740.237304688 c 0,4,-1
 744.583007812 740.170898438 l 1,5,6
 759.535532321 725.150746971 759.535532321 725.150746971 759.545410156 703.956665039 c 128,-1,7
 759.555287992 682.762583107 759.555287992 682.762583107 744.583007812 667.762695312 c 2,8,-1
 496.984375 419.640625 l 2,9,10
 483.397346392 406.028845054 483.397346392 406.028845054 464.233398438 404.741210938 c 0,11,12
 436.517527199 397.862355613 436.517527199 397.862355613 416.348632812 418.03125 c 0,13,14
 416.089355469 418.290527344 416.089355469 418.290527344 415.834960938 418.552734375 c 2,15,-1
 276.762695312 561.719726562 l 2,16,17
 262.137552738 576.775980479 262.137552738 576.775980479 262.289672852 597.765991211 c 128,-1,18
 262.441792965 618.756001942 262.441792965 618.756001942 277.284179688 633.59765625 c 2,19,-1
 277.805664062 634.120117188 l 2,20,21
 292.5859375 648.899658203 292.5859375 648.899658203 313.48828125 648.899658203 c 128,-1,22
 334.390625 648.899658203 334.390625 648.899658203 349.170898438 634.120117188 c 0,23,24
 349.430175781 633.860839844 349.430175781 633.860839844 349.684570312 633.598632812 c 2,25,-1
 456.306640625 523.836914062 l 1,0,-1
102.400390625 38.400390625 m 1,26,-1
 972.799804688 38.400390625 l 2,27,28
 994.007643863 38.400390625 994.007643863 38.400390625 1009.00382193 23.4040149836 c 128,-1,29
 1024 8.40763934228 1024 8.40763934228 1024 -12.7998046875 c 128,-1,30
 1024 -34.0078125 1024 -34.0078125 1009.00390625 -49.00390625 c 128,-1,31
 994.0078125 -64 994.0078125 -64 972.799804688 -64 c 2,32,-1
 51.2001953125 -64 l 2,33,34
 29.9921875 -64 29.9921875 -64 14.99609375 -49.00390625 c 128,-1,35
 0 -34.0078125 0 -34.0078125 0 -12.7998046875 c 2,36,-1
 0 857.599609375 l 1,37,-1
 102.400390625 857.599609375 l 1,38,-1
 102.400390625 38.400390625 l 1,26,-1
921.599609375 857.599609375 m 1,39,-1
 1024 857.599609375 l 1,40,-1
 1024 652.799804688 l 2,41,42
 1024 631.592360658 1024 631.592360658 1009.00382193 616.595985016 c 128,-1,43
 994.007643863 601.599609375 994.007643863 601.599609375 972.799804688 601.599609375 c 128,-1,44
 951.592529297 601.599609375 951.592529297 601.599609375 936.596069336 616.596069336 c 128,-1,45
 921.599609375 631.592529297 921.599609375 631.592529297 921.599609375 652.799804688 c 2,46,-1
 921.599609375 789.365234375 l 1,47,-1
 921.599609375 857.599609375 l 1,39,-1
51.2001953125 960 m 2,48,-1
 972.799804688 960 l 2,49,50
 994.0078125 960 994.0078125 960 1009.00390625 945.00390625 c 128,-1,51
 1024 930.0078125 1024 930.0078125 1024 908.799804688 c 2,52,-1
 1024 857.599609375 l 1,53,-1
 0 857.599609375 l 1,54,-1
 0 908.799804688 l 2,55,56
 0 930.0078125 0 930.0078125 14.99609375 945.00390625 c 128,-1,57
 29.9921875 960 29.9921875 960 51.2001953125 960 c 2,48,-1
768 499.200195312 m 2,58,-1
 972.799804688 499.200195312 l 2,59,60
 994.0078125 499.200195312 994.0078125 499.200195312 1009.00390625 484.204101562 c 128,-1,61
 1024 469.208007812 1024 469.208007812 1024 448 c 128,-1,62
 1024 426.791992188 1024 426.791992188 1009.00390625 411.795898438 c 128,-1,63
 994.0078125 396.799804688 994.0078125 396.799804688 972.799804688 396.799804688 c 2,64,-1
 768 396.799804688 l 2,65,66
 746.791992188 396.799804688 746.791992188 396.799804688 731.795898438 411.795898438 c 128,-1,67
 716.799804688 426.791992188 716.799804688 426.791992188 716.799804688 448 c 128,-1,68
 716.799804688 469.208007812 716.799804688 469.208007812 731.795898438 484.204101562 c 128,-1,69
 746.791992188 499.200195312 746.791992188 499.200195312 768 499.200195312 c 2,58,-1
563.200195312 294.400390625 m 2,70,-1
 972.799804688 294.400390625 l 2,71,72
 994.007643863 294.400390625 994.007643863 294.400390625 1009.00382193 279.404014984 c 128,-1,73
 1024 264.407639342 1024 264.407639342 1024 243.200195312 c 128,-1,74
 1024 221.9921875 1024 221.9921875 1009.00390625 206.99609375 c 128,-1,75
 994.0078125 192 994.0078125 192 972.799804688 192 c 2,76,-1
 563.200195312 192 l 2,77,78
 541.9921875 192 541.9921875 192 526.99609375 206.99609375 c 128,-1,79
 512 221.9921875 512 221.9921875 512 243.200195312 c 128,-1,80
 512 264.407639342 512 264.407639342 526.996178068 279.404014984 c 128,-1,81
 541.992356137 294.400390625 541.992356137 294.400390625 563.200195312 294.400390625 c 2,70,-1
EndSplineSet
Validated: 37
EndChar

StartChar: uniF950
Encoding: 63824 63824 28
Width: 1024
VWidth: 0
Flags: W
LayerCount: 2
Fore
SplineSet
888.922851562 251.053710938 m 4,0,1
 888.922851562 118.833984375 888.922851562 118.833984375 806.538085938 45.0244140625 c 132,-1,2
 724.15234375 -28.7841796875 724.15234375 -28.7841796875 593.094726562 -28.7841796875 c 6,3,-1
 180 -28.7841796875 l 5,4,-1
 180 920 l 5,5,-1
 573.10546875 920 l 6,6,7
 718.061523438 920 718.061523438 920 796.829101562 845.608398438 c 132,-1,8
 875.59765625 771.215820312 875.59765625 771.215820312 875.59765625 645.4921875 c 4,9,10
 875.59765625 607.732421875 875.59765625 607.732421875 864.147460938 574.317382812 c 132,-1,11
 852.698242188 540.90234375 852.698242188 540.90234375 833.953125 517.657226562 c 132,-1,12
 815.208007812 494.412109375 815.208007812 494.412109375 800.93359375 481.12109375 c 132,-1,13
 786.66015625 467.830078125 786.66015625 467.830078125 771.657226562 457.600585938 c 5,14,15
 788.529296875 447.12890625 788.529296875 447.12890625 799.29296875 439.518554688 c 132,-1,16
 810.056640625 431.909179688 810.056640625 431.909179688 829.028320312 413.094726562 c 132,-1,17
 848.000976562 394.28125 848.000976562 394.28125 859.375976562 374.234375 c 132,-1,18
 870.75 354.186523438 870.75 354.186523438 879.836914062 321.584960938 c 132,-1,19
 888.922851562 288.983398438 888.922851562 288.983398438 888.922851562 251.053710938 c 4,0,1
655.724609375 264.379882812 m 4,20,21
 655.724609375 298.759765625 655.724609375 298.759765625 635.197265625 322.87890625 c 132,-1,22
 614.669921875 346.998046875 614.669921875 346.998046875 570.440429688 346.998046875 c 6,23,-1
 413.198242188 346.998046875 l 5,24,-1
 413.198242188 180.427734375 l 5,25,-1
 570.440429688 180.427734375 l 6,26,27
 614.58203125 180.427734375 614.58203125 180.427734375 635.153320312 205.11328125 c 132,-1,28
 655.724609375 229.799804688 655.724609375 229.799804688 655.724609375 264.379882812 c 4,20,21
642.399414062 633.499023438 m 4,29,30
 642.399414062 648.411132812 642.399414062 648.411132812 638.106445312 661.469726562 c 132,-1,31
 633.813476562 674.528320312 633.813476562 674.528320312 624.580078125 685.982421875 c 132,-1,32
 615.34765625 697.435546875 615.34765625 697.435546875 598.37890625 704.112304688 c 132,-1,33
 581.41015625 710.788085938 581.41015625 710.788085938 558.447265625 710.788085938 c 6,34,-1
 413.198242188 710.788085938 l 5,35,-1
 413.198242188 556.2109375 l 5,36,-1
 558.447265625 556.2109375 l 6,37,38
 602.55859375 556.2109375 602.55859375 556.2109375 622.479492188 578.684570312 c 132,-1,39
 642.399414062 601.159179688 642.399414062 601.159179688 642.399414062 633.499023438 c 4,29,30
EndSplineSet
Validated: 1
EndChar

StartChar: uniF951
Encoding: 63825 63825 29
Width: 1024
VWidth: 0
LayerCount: 2
Fore
SplineSet
456.946289062 802.461914062 m 5,0,-1
 276.76953125 802.461914062 l 5,1,-1
 294.489257812 960 l 5,2,-1
 828.154296875 960 l 5,3,-1
 810.473632812 802.461914062 l 5,4,-1
 652.16796875 802.461914062 l 5,5,-1
 569.154296875 93.5380859375 l 5,6,-1
 749.384765625 93.5380859375 l 5,7,-1
 731.716796875 -64 l 5,8,-1
 198 -64 l 5,9,-1
 215.66796875 93.5380859375 l 5,10,-1
 373.9765625 93.5380859375 l 5,11,-1
 456.946289062 802.461914062 l 5,0,-1
EndSplineSet
Validated: 1
EndChar

StartChar: uniF952
Encoding: 63826 63826 30
Width: 1024
VWidth: 0
LayerCount: 2
Fore
SplineSet
153.235351562 56.470703125 m 6,0,-1
 876.05859375 56.470703125 l 6,1,2
 901.008789062 56.470703125 901.008789062 56.470703125 918.651367188 38.828125 c 132,-1,3
 936.293945312 21.185546875 936.293945312 21.185546875 936.293945312 -3.7646484375 c 132,-1,4
 936.293945312 -28.71484375 936.293945312 -28.71484375 918.651367188 -46.357421875 c 132,-1,5
 901.008789062 -64 901.008789062 -64 876.05859375 -64 c 6,6,-1
 153.235351562 -64 l 6,7,8
 128.28515625 -64 128.28515625 -64 110.642578125 -46.357421875 c 132,-1,9
 93 -28.71484375 93 -28.71484375 93 -3.7646484375 c 132,-1,10
 93 21.185546875 93 21.185546875 110.642578125 38.828125 c 132,-1,11
 128.28515625 56.470703125 128.28515625 56.470703125 153.235351562 56.470703125 c 6,0,-1
876.05859375 237.545898438 m 5,12,-1
 690.372070312 237.545898438 l 5,13,-1
 656.887695312 345.1015625 l 5,14,-1
 434.671875 345.1015625 l 5,15,-1
 399.157226562 237.545898438 l 5,16,-1
 213.470703125 237.545898438 l 5,17,-1
 476.2734375 960 l 5,18,-1
 613.255859375 960 l 5,19,-1
 876.05859375 237.545898438 l 5,12,-1
610.211914062 493.24609375 m 5,20,-1
 549.331054688 686.03515625 l 5,21,-1
 484.390625 493.24609375 l 5,22,-1
 610.211914062 493.24609375 l 5,20,-1
EndSplineSet
Validated: 1
EndChar

StartChar: uniF91E
Encoding: 63774 63774 31
Width: 1024
VWidth: 0
LayerCount: 2
Fore
SplineSet
766.111328125 -64 m 5,0,-1
 254.111328125 -64 l 5,1,-1
 225.666992188 -64 l 6,2,3
 202.102539062 -64 202.102539062 -64 185.440429688 -47.337890625 c 132,-1,4
 168.77734375 -30.67578125 168.77734375 -30.67578125 168.77734375 -7.111328125 c 6,5,-1
 168.77734375 561.77734375 l 5,6,-1
 282.555664062 561.77734375 l 5,7,-1
 282.555664062 49.77734375 l 5,8,-1
 737.666992188 49.77734375 l 5,9,-1
 737.666992188 561.77734375 l 5,10,-1
 851.444335938 561.77734375 l 5,11,-1
 851.444335938 -7.111328125 l 6,12,13
 851.444335938 -30.67578125 851.444335938 -30.67578125 834.782226562 -47.337890625 c 132,-1,14
 818.120117188 -64 818.120117188 -64 794.555664062 -64 c 6,15,-1
 766.111328125 -64 l 5,0,-1
623.888671875 846.22265625 m 5,16,-1
 737.666992188 846.22265625 l 5,17,-1
 737.666992188 675.555664062 l 5,18,-1
 623.888671875 675.555664062 l 5,19,-1
 623.888671875 846.22265625 l 5,16,-1
282.555664062 846.22265625 m 5,20,-1
 396.333007812 846.22265625 l 5,21,-1
 396.333007812 675.555664062 l 5,22,-1
 282.555664062 675.555664062 l 5,23,-1
 282.555664062 846.22265625 l 5,20,-1
339.444335938 960 m 6,24,-1
 680.77734375 960 l 6,25,26
 704.341796875 960 704.341796875 960 721.00390625 943.337890625 c 132,-1,27
 737.666992188 926.67578125 737.666992188 926.67578125 737.666992188 903.111328125 c 6,28,-1
 737.666992188 846.22265625 l 5,29,-1
 282.555664062 846.22265625 l 5,30,-1
 282.555664062 903.111328125 l 6,31,32
 282.555664062 926.67578125 282.555664062 926.67578125 299.217773438 943.337890625 c 132,-1,33
 315.879882812 960 315.879882812 960 339.444335938 960 c 6,24,-1
111.888671875 675.555664062 m 6,34,-1
 908.333007812 675.555664062 l 6,35,36
 931.897460938 675.555664062 931.897460938 675.555664062 948.559570312 658.893554688 c 132,-1,37
 965.22265625 642.231445312 965.22265625 642.231445312 965.22265625 618.666992188 c 132,-1,38
 965.22265625 595.102539062 965.22265625 595.102539062 948.559570312 578.440429688 c 132,-1,39
 931.897460938 561.77734375 931.897460938 561.77734375 908.333007812 561.77734375 c 6,40,-1
 111.888671875 561.77734375 l 6,41,42
 88.32421875 561.77734375 88.32421875 561.77734375 71.662109375 578.440429688 c 132,-1,43
 55 595.102539062 55 595.102539062 55 618.666992188 c 132,-1,44
 55 642.231445312 55 642.231445312 71.662109375 658.893554688 c 132,-1,45
 88.32421875 675.555664062 88.32421875 675.555664062 111.888671875 675.555664062 c 6,34,-1
EndSplineSet
EndChar

StartChar: uniF91F
Encoding: 63775 63775 32
Width: 1024
VWidth: 0
LayerCount: 2
Fore
SplineSet
827.802734375 846.22265625 m 1,0,-1
 625.77734375 846.22265625 l 2,1,2
 602.213698549 846.22265625 602.213698549 846.22265625 585.551185212 862.884972014 c 128,-1,3
 568.888671875 879.547287778 568.888671875 879.547287778 568.888671875 903.111328125 c 1,4,-1
 568.888671875 903.111328125 l 1,5,6
 568.888671875 926.675368472 568.888671875 926.675368472 585.551185212 943.337684236 c 128,-1,7
 602.213698549 960 602.213698549 960 625.77734375 960 c 2,8,-1
 967.111328125 960 l 2,9,10
 990.67578125 960 990.67578125 960 1007.33789062 943.337890625 c 128,-1,11
 1024 926.67578125 1024 926.67578125 1024 903.111328125 c 2,12,-1
 1024 561.77734375 l 2,13,14
 1024 538.213698549 1024 538.213698549 1007.33768424 521.551185212 c 128,-1,15
 990.675368472 504.888671875 990.675368472 504.888671875 967.111328125 504.888671875 c 128,-1,16
 943.547287778 504.888671875 943.547287778 504.888671875 926.884972014 521.551185212 c 128,-1,17
 910.22265625 538.213698549 910.22265625 538.213698549 910.22265625 561.77734375 c 2,18,-1
 910.22265625 767.84765625 l 1,19,-1
 611.268554688 451.977539062 l 2,20,21
 595.509798142 435.327426934 595.509798142 435.327426934 572.59362793 434.696777344 c 128,-1,22
 549.677457718 434.066127754 549.677457718 434.066127754 533.02734375 449.82421875 c 0,23,24
 532.475097656 450.348632812 532.475097656 450.348632812 531.936523438 450.885742188 c 2,25,-1
 530.844726562 451.977539062 l 2,26,27
 514.505890413 468.317107633 514.505890413 468.317107633 514.188232422 491.42199707 c 128,-1,28
 513.870574431 514.526886508 513.870574431 514.526886508 529.75390625 531.309570312 c 2,29,-1
 827.802734375 846.22265625 l 1,0,-1
-0 874.666992188 m 1,30,-1
 -0 903.111328125 l 2,31,32
 0 926.675537109 0 926.675537109 16.6622314453 943.337768555 c 128,-1,33
 33.3244628906 960 33.3244628906 960 56.888671875 960 c 2,34,-1
 398.22265625 960 l 2,35,36
 421.786301451 960 421.786301451 960 438.448814788 943.337684236 c 128,-1,37
 455.111328125 926.675368472 455.111328125 926.675368472 455.111328125 903.111328125 c 128,-1,38
 455.111328125 879.547287778 455.111328125 879.547287778 438.448814788 862.884972014 c 128,-1,39
 421.786301451 846.22265625 421.786301451 846.22265625 398.22265625 846.22265625 c 2,40,-1
 113.77734375 846.22265625 l 1,41,-1
 113.77734375 49.77734375 l 1,42,-1
 910.22265625 49.77734375 l 1,43,-1
 910.22265625 228.079101562 l 1,44,-1
 910.22265625 277.333007812 l 2,45,46
 910.22265625 300.897309934 910.22265625 300.897309934 926.884934263 317.559983092 c 128,-1,47
 943.547212276 334.22265625 943.547212276 334.22265625 967.111328125 334.22265625 c 0,48,49
 982.565141696 334.22265625 982.565141696 334.22265625 995.669931257 326.60975521 c 128,-1,50
 1008.77472082 318.99685417 1008.77472082 318.99685417 1016.38736041 305.891872394 c 128,-1,51
 1024 292.786890619 1024 292.786890619 1024 277.333007812 c 2,52,-1
 1024 -7.111328125 l 2,53,54
 1024 -30.67578125 1024 -30.67578125 1007.33789062 -47.337890625 c 128,-1,55
 990.67578125 -64 990.67578125 -64 967.111328125 -64 c 2,56,-1
 113.77734375 -64 l 1,57,-1
 56.888671875 -64 l 2,58,59
 33.3244628906 -64 33.3244628906 -64 16.6622314453 -47.3377685547 c 128,-1,60
 0 -30.6755371094 0 -30.6755371094 0 -7.111328125 c 2,61,-1
 -0 874.666992188 l 1,30,-1
EndSplineSet
Validated: 37
EndChar

StartChar: uniF920
Encoding: 63776 63776 33
Width: 1024
VWidth: 0
LayerCount: 2
Fore
SplineSet
102.400390625 690.599609375 m 5,0,-1
 102.400390625 332.200195312 l 5,1,-1
 921.599609375 332.200195312 l 5,2,-1
 921.599609375 690.599609375 l 5,3,-1
 102.400390625 690.599609375 l 5,0,-1
51.2001953125 793 m 6,4,-1
 972.799804688 793 l 6,5,6
 994.0078125 793 994.0078125 793 1009.00390625 778.00390625 c 132,-1,7
 1024 763.0078125 1024 763.0078125 1024 741.799804688 c 6,8,-1
 1024 281 l 6,9,10
 1024 259.791992188 1024 259.791992188 1009.00390625 244.795898438 c 132,-1,11
 994.0078125 229.799804688 994.0078125 229.799804688 972.799804688 229.799804688 c 6,12,-1
 51.2001953125 229.799804688 l 6,13,14
 29.9921875 229.799804688 29.9921875 229.799804688 14.99609375 244.795898438 c 132,-1,15
 0 259.791992188 0 259.791992188 0 281 c 6,16,-1
 0 741.799804688 l 6,17,18
 0 763.0078125 0 763.0078125 14.99609375 778.00390625 c 132,-1,19
 29.9921875 793 29.9921875 793 51.2001953125 793 c 6,4,-1
EndSplineSet
EndChar

StartChar: uniF921
Encoding: 63777 63777 34
Width: 1024
VWidth: 0
LayerCount: 2
Fore
SplineSet
837.818359375 773.818359375 m 1,0,-1
 186.181640625 773.818359375 l 1,1,-1
 186.181640625 215.272460938 l 1,2,-1
 837.818359375 215.272460938 l 1,3,-1
 837.818359375 773.818359375 l 1,0,-1
1024 866.909179688 m 2,4,-1
 1024 122.181640625 l 2,5,6
 1024 83.6223899546 1024 83.6223899546 996.734412751 56.3566051336 c 128,-1,7
 969.468825503 29.0908203125 969.468825503 29.0908203125 930.909179688 29.0908203125 c 2,8,-1
 93.0908203125 29.0908203125 l 2,9,10
 54.5317382812 29.0908203125 54.5317382812 29.0908203125 27.2658691406 56.3566894531 c 128,-1,11
 0 83.6225585938 0 83.6225585938 0 122.181640625 c 2,12,-1
 0 866.909179688 l 2,13,14
 0 905.468825503 0 905.468825503 27.2657848211 932.734412751 c 128,-1,15
 54.5315696421 960 54.5315696421 960 93.0908203125 960 c 2,16,-1
 930.909179688 960 l 2,17,18
 969.468994141 960 969.468994141 960 996.73449707 932.73449707 c 128,-1,19
 1024 905.468994141 1024 905.468994141 1024 866.909179688 c 2,4,-1
EndSplineSet
EndChar

StartChar: uniF922
Encoding: 63778 63778 35
Width: 1024
VWidth: 0
LayerCount: 2
Fore
SplineSet
683.799804688 857.599609375 m 5,0,-1
 325.400390625 857.599609375 l 5,1,-1
 325.400390625 38.400390625 l 5,2,-1
 683.799804688 38.400390625 l 5,3,-1
 683.799804688 857.599609375 l 5,0,-1
786.200195312 908.799804688 m 6,4,-1
 786.200195312 -12.7998046875 l 6,5,6
 786.200195312 -34.0078125 786.200195312 -34.0078125 771.204101562 -49.00390625 c 132,-1,7
 756.208007812 -64 756.208007812 -64 735 -64 c 6,8,-1
 274.200195312 -64 l 6,9,10
 252.9921875 -64 252.9921875 -64 237.99609375 -49.00390625 c 132,-1,11
 223 -34.0078125 223 -34.0078125 223 -12.7998046875 c 6,12,-1
 223 908.799804688 l 6,13,14
 223 930.0078125 223 930.0078125 237.99609375 945.00390625 c 132,-1,15
 252.9921875 960 252.9921875 960 274.200195312 960 c 6,16,-1
 735 960 l 6,17,18
 756.208007812 960 756.208007812 960 771.204101562 945.00390625 c 132,-1,19
 786.200195312 930.0078125 786.200195312 930.0078125 786.200195312 908.799804688 c 6,4,-1
EndSplineSet
EndChar

StartChar: uniF923
Encoding: 63779 63779 36
Width: 1024
VWidth: 0
LayerCount: 2
Fore
SplineSet
515.881835938 346.509765625 m 1,0,-1
 598.626953125 429.254882812 l 2,1,2
 617.372070312 448 617.372070312 448 643.881835938 448 c 128,-1,3
 670.393066368 448 670.393066368 448 689.13671875 429.254882812 c 2,4,-1
 896 222.391601562 l 1,5,-1
 896 832 l 1,6,-1
 128 832 l 1,7,-1
 128 470.626953125 l 1,8,-1
 214.626953125 557.254882812 l 2,9,10
 233.372070312 576 233.372070312 576 259.881835938 576 c 128,-1,11
 286.393066368 576 286.393066368 576 305.13671875 557.254882812 c 2,12,-1
 515.881835938 346.509765625 l 1,0,-1
425.373046875 256 m 1,13,-1
 259.881835938 421.490234375 l 1,14,-1
 128 289.608398438 l 1,15,-1
 128 128 l 1,16,-1
 297.373046875 128 l 1,17,-1
 425.373046875 256 l 1,13,-1
809.373046875 128 m 1,18,-1
 643.881835938 293.490234375 l 1,19,-1
 478.391601562 128 l 1,20,-1
 809.373046875 128 l 1,18,-1
64 960 m 2,21,-1
 960 960 l 2,22,23
 987 960 987 960 1005.5 941.5 c 128,-1,24
 1024 923 1024 923 1024 896 c 2,25,-1
 1024 64 l 2,26,27
 1024 37 1024 37 1005.5 18.5 c 128,-1,28
 987 0 987 0 960 0 c 2,29,-1
 64 0 l 2,30,31
 37 0 37 0 18.5 18.5 c 128,-1,32
 0 37 0 37 0 64 c 2,33,-1
 0 896 l 2,34,35
 0 923 0 923 18.5 941.5 c 128,-1,36
 37 960 37 960 64 960 c 2,21,-1
EndSplineSet
EndChar

StartChar: uniF924
Encoding: 63780 63780 37
Width: 1024
VWidth: 0
LayerCount: 2
Fore
SplineSet
64 828 m 6,0,-1
 960 828 l 6,1,2
 987 828 987 828 1005.5 809.5 c 132,-1,3
 1024 791 1024 791 1024 764 c 132,-1,4
 1024 737 1024 737 1005.5 718.5 c 132,-1,5
 987 700 987 700 960 700 c 6,6,-1
 64 700 l 6,7,8
 37 700 37 700 18.5 718.5 c 132,-1,9
 0 737 0 737 0 764 c 5,10,-1
 0 764 l 5,11,12
 0 791 0 791 18.5 809.5 c 132,-1,13
 37 828 37 828 64 828 c 6,0,-1
64 572 m 6,14,-1
 960 572 l 6,15,16
 987 572 987 572 1005.5 553.5 c 132,-1,17
 1024 535 1024 535 1024 508 c 132,-1,18
 1024 481 1024 481 1005.5 462.5 c 132,-1,19
 987 444 987 444 960 444 c 6,20,-1
 64 444 l 6,21,22
 37 444 37 444 18.5 462.5 c 132,-1,23
 0 481 0 481 0 508 c 132,-1,24
 0 535 0 535 18.5 553.5 c 132,-1,25
 37 572 37 572 64 572 c 6,14,-1
64 316 m 6,26,-1
 960 316 l 6,27,28
 987 316 987 316 1005.5 297.5 c 132,-1,29
 1024 279 1024 279 1024 252 c 132,-1,30
 1024 225 1024 225 1005.5 206.5 c 132,-1,31
 987 188 987 188 960 188 c 6,32,-1
 64 188 l 6,33,34
 37 188 37 188 18.5 206.5 c 132,-1,35
 0 225 0 225 0 252 c 132,-1,36
 0 279 0 279 18.5 297.5 c 132,-1,37
 37 316 37 316 64 316 c 6,26,-1
EndSplineSet
EndChar

StartChar: uniF925
Encoding: 63781 63781 38
Width: 1024
VWidth: 0
LayerCount: 2
Fore
SplineSet
325.75 940.78125 m 5,0,-1
 938.958984375 511.407226562 l 6,1,2
 962.123046875 495.188476562 962.123046875 495.188476562 967.033203125 467.340820312 c 132,-1,3
 971.943359375 439.494140625 971.943359375 439.494140625 955.723632812 416.330078125 c 4,4,5
 946.337890625 402.92578125 946.337890625 402.92578125 932.00390625 395.275390625 c 6,6,-1
 321.431640625 -17.4150390625 l 6,7,8
 301.87890625 -30.3505859375 301.87890625 -30.3505859375 279.216796875 -29.009765625 c 132,-1,9
 256.555664062 -27.669921875 256.555664062 -27.669921875 239.279296875 -13.13671875 c 4,10,11
 210 7.26953125 210 7.26953125 210 42.9091796875 c 6,12,-1
 210 891.733398438 l 6,13,14
 210 920.009765625 210 920.009765625 229.995117188 940.004882812 c 132,-1,15
 249.990234375 960 249.990234375 960 278.266601562 960 c 5,16,-1
 278.266601562 960 l 5,17,18
 305.901367188 960 305.901367188 960 325.75 940.78125 c 5,0,-1
346.533203125 759.551757812 m 5,19,-1
 346.533203125 164.32421875 l 5,20,-1
 779.075195312 456.682617188 l 5,21,-1
 346.533203125 759.551757812 l 5,19,-1
EndSplineSet
EndChar

StartChar: uniF926
Encoding: 63782 63782 39
Width: 1024
VWidth: 0
LayerCount: 2
Fore
SplineSet
512 -64 m 128,-1,1
 373 -64 373 -64 255 4.5 c 128,-1,2
 137 73 137 73 68.5 191 c 128,-1,3
 0 309 0 309 0 448 c 128,-1,4
 0 587 0 587 68.5 705 c 128,-1,5
 137 823 137 823 255 891.5 c 128,-1,6
 373 960 373 960 512 960 c 128,-1,7
 651 960 651 960 769 891.5 c 128,-1,8
 887 823 887 823 955.5 705 c 128,-1,9
 1024 587 1024 587 1024 448 c 128,-1,10
 1024 309 1024 309 955.5 191 c 128,-1,11
 887 73 887 73 769 4.5 c 128,-1,0
 651 -64 651 -64 512 -64 c 128,-1,1
437.000976562 666.291992188 m 2,12,-1
 472.32421875 383.703125 l 2,13,14
 474.365504494 367.377233636 474.365504494 367.377233636 486.699946779 356.488421506 c 128,-1,15
 499.034389064 345.599609375 499.034389064 345.599609375 515.487304688 345.599609375 c 128,-1,16
 531.940391192 345.599609375 531.940391192 345.599609375 544.275124849 356.488506291 c 128,-1,17
 556.609858507 367.377403208 556.609858507 367.377403208 558.650390625 383.703125 c 2,18,-1
 593.973632812 666.291992188 l 2,19,20
 598.037841178 698.801997001 598.037841178 698.801997001 577.92334201 724.663693503 c 128,-1,21
 557.808842843 750.525390006 557.808842843 750.525390006 525.298828125 754.588867188 c 0,22,23
 520.412601169 755.200195312 520.412601169 755.200195312 515.487304688 755.200195312 c 1,24,-1
 515.487304688 755.200195312 l 1,25,26
 482.724533873 755.200195312 482.724533873 755.200195312 459.557579437 732.033043303 c 128,-1,27
 436.390625 708.865891294 436.390625 708.865891294 436.390625 676.102539062 c 0,28,29
 436.390625 671.180673453 436.390625 671.180673453 437.000976562 666.291992188 c 2,12,-1
460.799804688 192 m 128,-1,31
 460.799804688 170.791992188 460.799804688 170.791992188 475.795898438 155.795898438 c 128,-1,32
 490.791992188 140.799804688 490.791992188 140.799804688 512 140.799804688 c 128,-1,33
 533.208007812 140.799804688 533.208007812 140.799804688 548.204101562 155.795898438 c 128,-1,34
 563.200195312 170.791992188 563.200195312 170.791992188 563.200195312 192 c 128,-1,35
 563.200195312 213.208007812 563.200195312 213.208007812 548.204101562 228.204101562 c 128,-1,36
 533.208007812 243.200195312 533.208007812 243.200195312 512 243.200195312 c 128,-1,37
 490.791992188 243.200195312 490.791992188 243.200195312 475.795898438 228.204101562 c 128,-1,30
 460.799804688 213.208007812 460.799804688 213.208007812 460.799804688 192 c 128,-1,31
EndSplineSet
EndChar

StartChar: uniF927
Encoding: 63783 63783 40
Width: 1024
VWidth: 0
LayerCount: 2
Fore
SplineSet
410.177734375 269.015625 m 4,0,1
 411.640944069 267.136881435 411.640944069 267.136881435 413.348632812 265.427734375 c 4,2,3
 424.595703125 254.180664062 424.595703125 254.180664062 440.501953125 254.180664062 c 132,-1,4
 456.408203125 254.180664062 456.408203125 254.180664062 467.655273438 265.427734375 c 6,5,-1
 775.387695312 573.16015625 l 6,6,7
 786.634765625 584.407958984 786.634765625 584.407958984 786.634765625 600.313842773 c 132,-1,8
 786.634765625 616.219726562 786.634765625 616.219726562 775.387695312 627.466796875 c 132,-1,9
 764.140625 638.713867188 764.140625 638.713867188 748.234863281 638.713867188 c 132,-1,10
 732.329101562 638.713867188 732.329101562 638.713867188 721.08203125 627.466796875 c 6,11,-1
 436.375976562 342.760742188 l 5,12,-1
 282.509765625 496.626953125 l 6,13,14
 271.262695312 507.874023438 271.262695312 507.874023438 255.356933594 507.874023438 c 132,-1,15
 239.451171875 507.874023438 239.451171875 507.874023438 228.204101562 496.626953125 c 132,-1,16
 216.95703125 485.379882812 216.95703125 485.379882812 216.95703125 469.474121094 c 132,-1,17
 216.95703125 453.568359375 216.95703125 453.568359375 228.204101562 442.321289062 c 6,18,-1
 391.12109375 279.404296875 l 6,19,20
 399.140582571 271.384808054 399.140582571 271.384808054 410.177734375 269.015625 c 4,0,1
512 -64 m 132,-1,22
 373 -64 373 -64 255 4.5 c 132,-1,23
 137 73 137 73 68.5 191 c 132,-1,24
 0 309 0 309 0 448 c 132,-1,25
 0 587 0 587 68.5 705 c 132,-1,26
 137 823 137 823 255 891.5 c 132,-1,27
 373 960 373 960 512 960 c 132,-1,28
 651 960 651 960 769 891.5 c 132,-1,29
 887 823 887 823 955.5 705 c 132,-1,30
 1024 587 1024 587 1024 448 c 132,-1,31
 1024 309 1024 309 955.5 191 c 132,-1,32
 887 73 887 73 769 4.5 c 132,-1,21
 651 -64 651 -64 512 -64 c 132,-1,22
EndSplineSet
EndChar

StartChar: uniF928
Encoding: 63784 63784 41
Width: 1024
VWidth: 0
LayerCount: 2
Fore
SplineSet
576 704 m 1,0,-1
 576 640 l 2,1,2
 576 613 576 613 557.5 594.5 c 128,-1,3
 539 576 539 576 512 576 c 2,4,-1
 256 576 l 2,5,6
 229 576 229 576 210.5 594.5 c 128,-1,7
 192 613 192 613 192 640 c 2,8,-1
 192 704 l 1,9,-1
 64 704 l 2,10,11
 37 704 37 704 18.5 722.5 c 128,-1,12
 0 741 0 741 0 768 c 128,-1,13
 0 795 0 795 18.5 813.5 c 128,-1,14
 37 832 37 832 64 832 c 2,15,-1
 192 832 l 1,16,-1
 192 896 l 2,17,18
 192 923 192 923 210.5 941.5 c 128,-1,19
 229 960 229 960 256 960 c 2,20,-1
 512 960 l 2,21,22
 539 960 539 960 557.5 941.5 c 128,-1,23
 576 923 576 923 576 896 c 2,24,-1
 576 832 l 1,25,-1
 960 832 l 2,26,27
 987 832 987 832 1005.5 813.5 c 128,-1,28
 1024 795 1024 795 1024 768 c 128,-1,29
 1024 741 1024 741 1005.5 722.5 c 128,-1,30
 987 704 987 704 960 704 c 2,31,-1
 576 704 l 1,0,-1
320 832 m 1,32,-1
 320 704 l 1,33,-1
 448 704 l 1,34,-1
 448 832 l 1,35,-1
 320 832 l 1,32,-1
448 192 m 1,36,-1
 64 192 l 2,37,38
 37 192 37 192 18.5 210.5 c 128,-1,39
 0 229 0 229 0 256 c 128,-1,40
 0 283 0 283 18.5 301.5 c 128,-1,41
 37 320 37 320 64 320 c 2,42,-1
 448 320 l 1,43,-1
 448 384 l 2,44,45
 448 411 448 411 466.5 429.5 c 128,-1,46
 485 448 485 448 512 448 c 2,47,-1
 768 448 l 2,48,49
 795 448 795 448 813.5 429.5 c 128,-1,50
 832 411 832 411 832 384 c 2,51,-1
 832 320 l 1,52,-1
 960 320 l 2,53,54
 987 320 987 320 1005.5 301.5 c 128,-1,55
 1024 283 1024 283 1024 256 c 128,-1,56
 1024 229 1024 229 1005.5 210.5 c 128,-1,57
 987 192 987 192 960 192 c 2,58,-1
 832 192 l 1,59,-1
 832 128 l 2,60,61
 832 101 832 101 813.5 82.5 c 128,-1,62
 795 64 795 64 768 64 c 2,63,-1
 512 64 l 2,64,65
 485 64 485 64 466.5 82.5 c 128,-1,66
 448 101 448 101 448 128 c 2,67,-1
 448 192 l 1,36,-1
704 320 m 1,68,-1
 576 320 l 1,69,-1
 576 192 l 1,70,-1
 704 192 l 1,71,-1
 704 320 l 1,68,-1
EndSplineSet
EndChar

StartChar: uniF929
Encoding: 63785 63785 42
Width: 1024
VWidth: 0
LayerCount: 2
Fore
SplineSet
692.587890625 839.529296875 m 5,0,-1
 813.05859375 839.529296875 l 5,1,-1
 813.05859375 658.823242188 l 5,2,-1
 692.587890625 658.823242188 l 5,3,-1
 692.587890625 839.529296875 l 5,0,-1
210.706054688 839.529296875 m 5,4,-1
 331.176757812 839.529296875 l 5,5,-1
 331.176757812 658.823242188 l 5,6,-1
 210.706054688 658.823242188 l 5,7,-1
 210.706054688 839.529296875 l 5,4,-1
270.94140625 960 m 6,8,-1
 752.823242188 960 l 6,9,10
 777.7734375 960 777.7734375 960 795.416015625 942.357421875 c 132,-1,11
 813.05859375 924.71484375 813.05859375 924.71484375 813.05859375 899.764648438 c 6,12,-1
 813.05859375 839.529296875 l 5,13,-1
 210.706054688 839.529296875 l 5,14,-1
 210.706054688 899.764648438 l 6,15,16
 210.706054688 924.71484375 210.706054688 924.71484375 228.348632812 942.357421875 c 132,-1,17
 245.990234375 960 245.990234375 960 270.94140625 960 c 6,8,-1
90.2353515625 658.823242188 m 6,18,-1
 933.529296875 658.823242188 l 6,19,20
 958.48046875 658.823242188 958.48046875 658.823242188 976.122070312 641.180664062 c 132,-1,21
 993.764648438 623.5390625 993.764648438 623.5390625 993.764648438 598.587890625 c 6,22,-1
 993.764648438 -3.7646484375 l 6,23,24
 993.764648438 -28.71484375 993.764648438 -28.71484375 976.122070312 -46.357421875 c 132,-1,25
 958.479492188 -64 958.479492188 -64 933.529296875 -64 c 6,26,-1
 90.2353515625 -64 l 6,27,28
 65.28515625 -64 65.28515625 -64 47.642578125 -46.357421875 c 132,-1,29
 30 -28.71484375 30 -28.71484375 30 -3.7646484375 c 6,30,-1
 30 598.587890625 l 6,31,32
 30 623.5390625 30 623.5390625 47.642578125 641.180664062 c 132,-1,33
 65.28515625 658.823242188 65.28515625 658.823242188 90.2353515625 658.823242188 c 6,18,-1
150.470703125 538.352539062 m 5,34,-1
 150.470703125 56.470703125 l 5,35,-1
 873.293945312 56.470703125 l 5,36,-1
 873.293945312 538.352539062 l 5,37,-1
 150.470703125 538.352539062 l 5,34,-1
451.647460938 357.647460938 m 5,38,-1
 572.1171875 357.647460938 l 5,39,-1
 572.1171875 237.176757812 l 5,40,-1
 451.647460938 237.176757812 l 5,41,-1
 451.647460938 357.647460938 l 5,38,-1
EndSplineSet
EndChar

StartChar: uniF92A
Encoding: 63786 63786 43
Width: 1024
VWidth: 0
Flags: WO
LayerCount: 2
Fore
SplineSet
512 -64 m 128,-1,1
 373 -64 373 -64 255 4.5 c 128,-1,2
 137 73 137 73 68.5 191 c 128,-1,3
 0 309 0 309 0 448 c 128,-1,4
 0 587 0 587 68.5 705 c 128,-1,5
 137 823 137 823 255 891.5 c 128,-1,6
 373 960 373 960 512 960 c 128,-1,7
 651 960 651 960 769 891.5 c 128,-1,8
 887 823 887 823 955.5 705 c 128,-1,9
 1024 587 1024 587 1024 448 c 128,-1,10
 1024 309 1024 309 955.5 191 c 128,-1,11
 887 73 887 73 769 4.5 c 128,-1,0
 651 -64 651 -64 512 -64 c 128,-1,1
EndSplineSet
EndChar
